<svg version="1.1" id="Layer_1" xmlns="http://www.w3.org/2000/svg" xmlns:xlink="http://www.w3.org/1999/xlink" x="0px" y="0px"
	 width="100%" viewBox="0 0 682 264" enable-background="new 0 0 682 264" xml:space="preserve">
<path fill="#FEFFFF" opacity="1.000000" stroke="none" 
	d="
M470.000000,265.000000 
	C313.333344,265.000000 157.166672,265.000000 1.000000,265.000000 
	C1.000000,177.000000 1.000000,89.000000 1.000000,1.000000 
	C228.333328,1.000000 455.666656,1.000000 683.000000,1.000000 
	C683.000000,89.000000 683.000000,177.000000 683.000000,265.000000 
	C612.166687,265.000000 541.333313,265.000000 470.000000,265.000000 
M35.976303,189.503357 
	C50.852489,198.005676 65.757294,206.458694 80.575790,215.060410 
	C82.956436,216.442291 84.737976,216.778122 87.317719,215.282425 
	C108.183464,203.184952 129.180038,191.312988 150.028030,179.185425 
	C151.510010,178.323349 153.005829,175.986359 153.019043,174.323456 
	C153.210983,150.176453 153.208542,126.027008 153.026794,101.879837 
	C153.013992,100.178398 151.662537,97.752296 150.209778,96.906898 
	C129.219742,84.692154 108.133766,72.640503 86.960434,60.746212 
	C85.491531,59.921047 82.750618,59.931065 81.277458,60.757744 
	C60.242126,72.561966 39.351036,84.622955 18.342567,96.475639 
	C15.621521,98.010818 14.901485,99.808083 14.920779,102.805412 
	C15.057993,124.121857 15.389949,145.450775 14.788475,166.751129 
	C14.564715,174.675247 16.154638,179.948654 24.026779,182.825394 
	C28.032772,184.289322 31.588846,186.984451 35.976303,189.503357 
M319.808350,82.182549 
	C316.916962,85.132317 313.364014,87.675018 311.253387,91.105186 
	C303.749786,103.300034 303.631073,116.157440 310.532501,128.514252 
	C317.214539,140.478363 328.411438,144.550797 341.711548,144.197342 
	C355.538605,143.829880 367.265259,136.058411 371.965607,123.686508 
	C377.089203,110.200478 373.601654,93.905807 363.690216,85.021858 
	C352.448334,74.945381 335.382111,73.678505 319.808350,82.182549 
M411.687286,77.729424 
	C401.953674,77.729424 392.220062,77.729424 382.643524,77.729424 
	C382.643524,99.910774 382.643524,121.619232 382.643524,143.172546 
	C388.472778,143.172546 393.851349,143.172546 399.757812,143.172546 
	C399.757812,134.363022 399.757812,126.017105 399.757812,117.671188 
	C405.332214,125.070084 409.939117,132.707306 414.687378,140.255615 
	C415.504822,141.555099 416.874084,143.357147 418.072083,143.423782 
	C423.967377,143.751694 429.890808,143.572739 436.875183,143.572739 
	C429.715942,133.309464 423.215912,123.991165 416.504669,114.370110 
	C422.866638,112.273926 427.401886,108.942177 429.000214,102.645340 
	C432.126953,90.326988 425.506683,80.378777 411.687286,77.729424 
M633.929260,102.085106 
	C630.701782,102.599907 631.027588,100.393990 631.033936,98.361076 
	C631.055115,91.565376 631.041992,84.769585 631.041992,77.670914 
	C625.225769,77.670914 619.831177,77.670914 614.252563,77.670914 
	C614.252563,99.669853 614.252563,121.386780 614.252563,143.301575 
	C619.913147,143.301575 625.308105,143.301575 631.177673,143.301575 
	C631.177673,134.400284 631.177673,125.825966 631.177673,115.691780 
	C633.820496,117.497505 635.830139,118.255592 636.900208,119.706573 
	C641.933411,126.531685 646.640808,133.596481 651.634644,140.451752 
	C652.609009,141.789337 654.295166,143.399292 655.727844,143.475342 
	C661.966492,143.806564 668.232727,143.617599 675.528076,143.617599 
	C666.553284,131.482956 658.215515,120.209633 649.906433,108.975044 
	C658.215088,98.558098 666.246704,88.488533 675.121887,77.361320 
	C668.526550,77.361320 663.252136,77.107529 658.024475,77.490601 
	C656.030701,77.636696 653.586060,78.765663 652.303589,80.264999 
	C646.263000,87.327011 640.554382,94.672997 633.929260,102.085106 
M535.134705,131.160233 
	C538.524170,130.559402 540.146484,132.023514 541.203064,135.310974 
	C542.146667,138.246826 543.652039,142.711456 545.726379,143.229263 
	C550.479431,144.415756 555.731140,143.604675 561.398376,143.604675 
	C553.371277,121.752121 545.743286,100.842720 537.904358,80.012695 
	C537.447815,78.799507 535.331848,77.589890 533.903259,77.479668 
	C529.596924,77.147453 525.220581,77.664734 520.925049,77.269402 
	C516.964294,76.904861 515.399902,78.656853 514.212524,82.109932 
	C511.022858,91.385826 507.493591,100.544701 504.120239,109.757751 
	C500.079742,120.792839 496.061096,131.835922 491.753662,143.641083 
	C494.875092,143.641083 497.304749,143.641052 499.734436,143.641083 
	C508.997314,143.641159 509.136566,143.687210 511.987488,135.062790 
	C513.004089,131.987381 514.546265,130.947983 517.720154,131.091492 
	C523.207092,131.339569 528.713379,131.160278 535.134705,131.160233 
M293.944122,136.486588 
	C297.221802,132.265976 300.499481,128.045364 304.298828,123.153023 
	C297.763092,120.788078 292.693298,118.953590 287.692291,117.143982 
	C281.805206,127.163010 275.128204,130.417068 265.844147,128.038910 
	C258.506073,126.159203 254.146362,120.229919 253.803940,111.663971 
	C253.425797,102.204376 257.286987,95.417412 264.882996,93.057625 
	C273.758728,90.300285 282.030579,92.600906 287.865021,103.525681 
	C292.866058,101.807938 297.936493,100.066345 303.229370,98.248367 
	C297.488953,83.796539 287.009186,77.600891 272.555298,76.629791 
	C258.792572,75.705116 245.863297,82.507050 240.016785,94.431763 
	C234.015091,106.672997 236.107574,123.986046 244.726074,133.396133 
	C256.845093,146.628265 277.476868,148.127426 293.944122,136.486588 
M466.289124,102.289322 
	C464.709991,101.772705 463.075531,101.380989 461.563965,100.711731 
	C458.953918,99.556114 455.579651,98.108742 457.094238,94.759315 
	C458.023499,92.704300 461.073456,90.779533 463.443909,90.368050 
	C469.371063,89.339157 472.532715,93.187920 474.302338,98.712105 
	C479.731110,97.348145 484.915222,96.045662 491.809845,94.313408 
	C488.137299,89.521278 485.831818,85.179710 482.347412,82.231361 
	C473.918518,75.099274 457.806244,74.439926 448.374695,80.129578 
	C436.324219,87.399162 435.990936,103.863190 447.883942,110.987556 
	C450.838745,112.757591 454.249756,113.775063 457.471436,115.088417 
	C461.459717,116.714310 465.727173,117.865204 469.352386,120.076515 
	C470.976562,121.067230 472.270477,124.283569 471.969849,126.219055 
	C471.724030,127.801895 469.075134,129.732697 467.169037,130.203491 
	C461.050720,131.714645 456.971954,128.422531 454.033447,120.095291 
	C448.363525,121.490135 442.665924,122.891785 436.868286,124.318047 
	C438.071045,131.817108 441.736542,136.943222 447.733398,140.272003 
	C457.379578,145.626480 467.545105,145.507980 477.626801,141.939133 
	C485.117462,139.287506 489.604584,133.859863 490.174133,125.575531 
	C490.760101,117.052620 486.915344,111.124519 479.511932,107.493896 
	C475.507935,105.530327 471.190918,104.205070 466.289124,102.289322 
M197.040939,260.220673 
	C197.413940,265.555145 201.099548,262.101105 203.578278,263.075562 
	C203.578278,179.521729 203.578278,96.462700 203.578278,13.185892 
	C201.377899,13.185892 199.465439,13.185892 197.037933,13.185892 
	C197.037933,95.380745 197.037933,177.326904 197.040939,260.220673 
M592.828796,128.495117 
	C592.828796,116.566673 592.828796,104.638222 592.828796,92.193169 
	C597.958374,92.193169 602.539429,92.193169 607.277161,92.193169 
	C607.277161,86.984619 607.277161,82.309311 607.277161,77.752960 
	C591.622986,77.752960 576.417603,77.752960 561.273926,77.752960 
	C561.273926,82.730576 561.273926,87.298096 561.273926,92.366890 
	C566.215942,92.366890 570.794739,92.366890 575.847290,92.366890 
	C575.847290,109.598473 575.847290,126.327454 575.847290,143.275177 
	C581.722168,143.275177 587.096619,143.275177 592.828613,143.275177 
	C592.828613,138.435226 592.828613,133.963898 592.828796,128.495117 
M427.597351,180.983749 
	C426.954224,182.671097 426.311096,184.358459 425.647034,186.100708 
	C425.202545,185.788193 424.781738,185.655563 424.690247,185.403442 
	C423.390045,181.820190 422.104858,178.230835 420.874023,174.623169 
	C418.149567,166.637405 418.162659,166.629089 409.467773,167.124008 
	C409.175232,167.140671 408.896301,167.395966 408.220795,167.737061 
	C407.372864,178.203766 406.507904,188.881058 405.616516,199.884338 
	C408.207520,199.884338 410.123352,199.884338 412.446136,199.884338 
	C413.135254,192.819092 413.815887,185.840515 414.496521,178.861938 
	C417.657043,184.482346 419.477448,190.275879 421.708313,195.906799 
	C422.363098,197.559555 424.182434,198.750916 425.468048,200.153732 
	C426.634766,198.815033 428.291412,197.662048 428.881653,196.104843 
	C431.194031,190.004501 433.169739,183.776550 435.270508,177.596008 
	C435.508728,177.658081 435.746948,177.720169 435.985199,177.782242 
	C436.721649,185.161179 437.458130,192.540100 438.192474,199.897888 
	C440.641571,199.897888 442.566315,199.897888 445.031647,199.897888 
	C444.106323,188.791595 443.206787,177.994812 442.316742,167.311829 
	C432.594940,166.524963 432.594147,166.524689 429.639862,175.064240 
	C429.042999,176.789627 428.454926,178.518051 427.597351,180.983749 
M480.160400,166.986115 
	C478.564484,167.074890 476.968567,167.163651 475.426941,167.249390 
	C475.426941,178.422256 475.426941,189.153717 475.426941,199.873856 
	C477.724884,199.873856 479.651672,199.873856 482.087311,199.873856 
	C482.087311,192.574326 482.087311,185.544220 482.087311,178.514114 
	C486.580658,183.993118 490.616058,189.485840 493.597198,195.501038 
	C496.256927,200.867691 499.935822,200.755585 504.592102,199.645279 
	C504.592102,188.721680 504.592102,178.123901 504.592102,167.326141 
	C502.300293,167.326141 500.265045,167.326141 497.609772,167.326141 
	C497.609772,174.595917 497.609772,181.544617 497.609772,188.493317 
	C492.818573,182.443558 488.995331,176.219193 484.941406,170.148895 
	C484.050323,168.814575 482.339569,168.027634 480.160400,166.986115 
M549.363525,189.458481 
	C549.566772,186.331100 550.238464,183.149155 549.881714,180.087006 
	C548.966492,172.229782 542.370483,166.805557 533.895935,166.425415 
	C525.998474,166.071152 518.856506,171.158371 516.987488,178.469284 
	C514.655212,187.592545 518.866089,196.687637 526.744873,199.544250 
	C536.097229,202.935120 544.604980,199.392944 549.363525,189.458481 
M561.988953,170.686859 
	C561.988953,180.427841 561.988953,190.168839 561.988953,199.901062 
	C564.605225,199.901062 566.537354,199.901062 569.289551,199.901062 
	C569.289551,195.065598 569.289551,190.453018 569.289551,185.840454 
	C569.756653,185.744141 570.223694,185.647842 570.690796,185.551529 
	C572.643738,188.742264 575.000305,191.760635 576.453918,195.164581 
	C578.574280,200.129700 581.940613,201.120926 587.163025,199.566254 
	C584.090881,194.841278 581.140869,190.304184 578.191772,185.768478 
	C584.133545,182.068344 585.717163,179.090515 584.402405,174.266174 
	C583.011841,169.163818 579.712280,167.066956 572.898804,166.993942 
	C570.241577,166.965454 567.544800,166.728561 564.944885,167.115952 
	C563.855103,167.278351 562.970154,168.815460 561.988953,170.686859 
M362.088013,200.354996 
	C363.522186,200.245804 364.956390,200.136612 366.394897,200.027084 
	C366.394897,197.836136 366.394897,196.096024 366.394897,193.884003 
	C362.293823,193.884003 358.525116,193.884003 354.731445,193.884003 
	C354.731445,191.340897 354.731445,189.279114 354.731445,186.976196 
	C358.327637,186.759094 361.561340,186.563873 364.750916,186.371323 
	C364.750916,184.185486 364.750916,182.460022 364.750916,180.519653 
	C361.164612,180.358322 357.919983,180.212357 354.566650,180.061508 
	C354.566650,177.498703 354.566650,175.541687 354.566650,172.924194 
	C358.664886,172.924194 362.556244,172.924194 366.450256,172.924194 
	C366.450256,170.666397 366.450256,169.071884 366.450256,167.323730 
	C359.959259,167.323730 353.751801,167.323730 347.470886,167.323730 
	C347.470886,178.399841 347.470886,189.123825 347.470886,200.354294 
	C352.251099,200.354294 356.717163,200.354294 362.088013,200.354996 
M236.514328,170.831345 
	C236.514328,180.438461 236.514328,190.045593 236.514328,199.813385 
	C243.239380,199.813385 249.438477,199.813385 255.605316,199.813385 
	C255.605316,197.729446 255.605316,196.007874 255.605316,193.799896 
	C251.508179,193.799896 247.761475,193.799896 244.106735,193.799896 
	C244.106735,191.220749 244.106735,189.150665 244.106735,186.653778 
	C246.774292,186.653778 249.153625,187.013092 251.338013,186.515915 
	C252.601532,186.228302 253.550934,184.560516 254.641708,183.513901 
	C253.560715,182.458023 252.617767,180.752274 251.368835,180.486969 
	C249.055115,179.995468 246.562485,180.346237 244.071777,180.346237 
	C244.071777,177.513519 244.071777,175.459412 244.071777,172.908905 
	C248.136887,172.908905 251.880722,172.908905 255.590424,172.908905 
	C255.590424,170.684937 255.590424,168.974686 255.590424,166.985046 
	C249.923386,166.985046 244.615738,166.837616 239.330658,167.117081 
	C238.346542,167.169128 237.453140,168.936646 236.514328,170.831345 
M315.937347,198.683563 
	C317.968933,199.375870 319.953125,200.385529 322.041534,200.697571 
	C327.134674,201.458542 332.814056,198.526154 334.671783,194.502502 
	C336.677155,190.159103 335.562592,186.524719 330.789215,182.196320 
	C333.764099,178.658676 335.364594,174.824509 332.250793,170.518127 
	C329.715240,167.011505 323.928741,165.516861 319.066040,167.170242 
	C314.551208,168.705399 312.668152,172.034195 312.724915,177.070038 
	C315.714294,177.258118 318.671143,179.041092 320.093994,174.510315 
	C320.415833,173.485443 322.759338,172.388443 324.004211,172.558044 
	C325.265533,172.729889 327.214081,174.405685 327.242462,175.466049 
	C327.280212,176.878342 325.767700,178.341614 324.892944,179.765656 
	C324.225098,180.852798 323.020813,181.896240 322.983398,182.990891 
	C322.955414,183.810181 324.502045,184.610443 325.177429,185.542480 
	C326.416229,187.252090 328.687653,189.291000 328.387024,190.751984 
	C328.049652,192.391861 325.259186,194.707626 323.684998,194.597580 
	C321.929077,194.474792 320.268005,192.025620 318.721924,190.436920 
	C318.231995,189.933487 318.243469,188.942062 317.971985,187.985535 
	C315.878845,188.084930 313.972626,188.175461 310.424805,188.343948 
	C312.407410,192.344696 313.864777,195.285568 315.937347,198.683563 
M275.159698,176.532867 
	C275.159698,173.436783 275.159698,170.340714 275.159698,167.273834 
	C272.514832,167.273834 270.593140,167.273834 268.528778,167.273834 
	C268.528778,178.293213 268.528778,189.019897 268.528778,199.748810 
	C274.422180,199.748810 279.968994,199.748810 285.537476,199.748810 
	C285.537476,197.719330 285.537476,196.117645 285.537476,194.217987 
	C282.067719,194.056183 278.830627,193.905228 275.160065,193.734070 
	C275.160065,188.108124 275.160065,182.814621 275.159698,176.532867 
M385.959991,186.430908 
	C385.959991,180.011871 385.959991,173.592834 385.959991,167.282288 
	C383.251831,167.282288 381.321594,167.282288 379.304840,167.282288 
	C379.304840,178.299942 379.304840,189.030701 379.304840,199.824280 
	C385.022644,199.824280 390.427032,199.824280 395.844788,199.824280 
	C395.844788,197.769424 395.844788,196.048721 395.844788,193.832642 
	C392.419159,193.832642 389.345306,193.832642 385.960114,193.832642 
	C385.960114,191.358368 385.960114,189.384171 385.959991,186.430908 
z"/>
<path fill="#2FB2BD" opacity="1.000000" stroke="none" 
	d="
M35.662300,189.313202 
	C31.588846,186.984451 28.032772,184.289322 24.026779,182.825394 
	C16.154638,179.948654 14.564715,174.675247 14.788475,166.751129 
	C15.389949,145.450775 15.057993,124.121857 14.920779,102.805412 
	C14.901485,99.808083 15.621521,98.010818 18.342567,96.475639 
	C39.351036,84.622955 60.242126,72.561966 81.277458,60.757744 
	C82.750618,59.931065 85.491531,59.921047 86.960434,60.746212 
	C108.133766,72.640503 129.219742,84.692154 150.209778,96.906898 
	C151.662537,97.752296 153.013992,100.178398 153.026794,101.879837 
	C153.208542,126.027008 153.210983,150.176453 153.019043,174.323456 
	C153.005829,175.986359 151.510010,178.323349 150.028030,179.185425 
	C129.180038,191.312988 108.183464,203.184952 87.317719,215.282425 
	C84.737976,216.778122 82.956436,216.442291 80.575790,215.060410 
	C65.757294,206.458694 50.852489,198.005676 35.662300,189.313202 
M36.961639,118.622643 
	C34.248360,117.133339 31.535082,115.644028 28.180895,113.802925 
	C28.180895,132.361633 28.112799,150.110565 28.318958,167.856308 
	C28.334324,169.178848 30.054966,170.927856 31.422335,171.719635 
	C45.661064,179.964539 59.985878,188.060928 74.303032,196.169891 
	C75.216614,196.687317 76.264557,196.967499 77.600525,197.496979 
	C77.600525,194.151840 77.321533,191.295273 77.665512,188.515823 
	C78.189598,184.280945 76.528778,181.916718 72.780930,179.920776 
	C63.542416,175.000763 54.626099,169.477692 45.414925,164.503220 
	C42.460449,162.907654 41.607265,161.026138 41.665310,157.819672 
	C41.858025,147.173828 41.569611,136.518188 41.831882,125.875328 
	C41.919075,122.337067 40.797798,120.202530 36.961639,118.622643 
M107.147118,87.356636 
	C100.787598,83.735382 94.356369,80.232338 88.101799,76.438065 
	C85.378448,74.785980 83.215828,74.621262 80.352013,76.292099 
	C66.418076,84.421570 52.347153,92.316086 38.343414,100.326462 
	C37.437183,100.844841 36.687798,101.637421 35.563927,102.546288 
	C38.704296,104.398872 41.587822,105.772949 44.085747,107.657990 
	C47.071659,109.911285 49.480019,109.531975 52.565102,107.667282 
	C61.530037,102.248703 70.822853,97.369652 79.747429,91.888779 
	C83.119713,89.817749 85.541847,90.110184 88.764114,92.053062 
	C98.019753,97.633835 107.466263,102.901474 116.908806,108.164726 
	C118.188759,108.878159 120.218391,109.579002 121.311539,109.055351 
	C125.216331,107.184837 128.867142,104.784142 133.170654,102.257225 
	C124.191010,97.133858 115.976616,92.447113 107.147118,87.356636 
M139.969376,160.430359 
	C139.969376,145.165009 139.969376,129.899643 139.969376,113.878738 
	C136.632721,115.724709 134.032166,117.517876 131.171356,118.658150 
	C127.435966,120.147034 126.586609,122.622131 126.682022,126.422035 
	C126.941170,136.742844 126.596672,147.078934 126.863625,157.399353 
	C126.959564,161.108063 125.628433,163.098038 122.481644,164.813568 
	C112.988083,169.989166 103.625786,175.408218 94.276817,180.843323 
	C92.967873,181.604309 91.169456,182.907227 91.058556,184.095642 
	C90.665298,188.309692 90.905190,192.582825 90.905190,197.639282 
	C93.425323,196.321854 95.169830,195.478073 96.849670,194.520813 
	C108.702217,187.766510 120.357979,180.634064 132.464966,174.373459 
	C138.229477,171.392578 141.392685,168.013809 139.969376,160.430359 
M103.022430,160.617722 
	C103.978828,159.914444 104.935226,159.211151 106.206467,158.276367 
	C99.217339,154.253036 92.755173,150.483994 86.227684,146.831696 
	C85.314041,146.320496 83.785217,145.849350 83.039879,146.261505 
	C76.020752,150.143097 69.110039,154.220734 61.646904,158.543625 
	C68.837898,162.689529 75.238312,166.578094 81.863235,170.036575 
	C83.235153,170.752762 85.716019,170.402618 87.213158,169.629150 
	C92.383743,166.957809 97.345428,163.882126 103.022430,160.617722 
M108.861816,118.783295 
	C103.123001,115.536247 97.384193,112.289207 90.894218,108.617157 
	C90.894218,117.200363 90.868004,124.938210 90.937668,132.675186 
	C90.944130,133.392212 91.363441,134.442322 91.922325,134.766296 
	C98.735352,138.715668 105.610428,142.557983 113.211189,146.846603 
	C113.211189,138.880264 113.045502,132.069687 113.285316,125.273415 
	C113.395241,122.158493 112.417763,120.192169 108.861816,118.783295 
M77.334076,123.478767 
	C77.334076,118.797546 77.334076,114.116333 77.334076,108.628860 
	C69.848778,112.837898 63.341244,116.440125 56.913700,120.179817 
	C56.060856,120.676025 55.080490,121.861168 55.063896,122.744255 
	C54.919003,130.455811 54.980175,138.171234 54.980175,146.884277 
	C60.162380,143.972122 64.245369,141.041809 68.781540,139.275040 
	C75.885666,136.508087 78.846077,131.922821 77.334076,123.478767 
z"/>
<path fill="#2FB2BD" opacity="1.000000" stroke="none" 
	d="
M320.123230,81.996841 
	C335.382111,73.678505 352.448334,74.945381 363.690216,85.021858 
	C373.601654,93.905807 377.089203,110.200478 371.965607,123.686508 
	C367.265259,136.058411 355.538605,143.829880 341.711548,144.197342 
	C328.411438,144.550797 317.214539,140.478363 310.532501,128.514252 
	C303.631073,116.157440 303.749786,103.300034 311.253387,91.105186 
	C313.364014,87.675018 316.916962,85.132317 320.123230,81.996841 
M356.956726,114.900711 
	C357.787415,103.265137 354.539398,96.329468 346.818512,93.252075 
	C337.647156,89.596573 327.455780,93.818550 324.126068,102.652901 
	C320.202454,113.062996 324.602753,124.513565 333.779602,127.725929 
	C342.259491,130.694336 353.923798,127.513252 356.956726,114.900711 
z"/>
<path fill="#32B3BE" opacity="1.000000" stroke="none" 
	d="
M412.108154,77.811859 
	C425.506683,80.378777 432.126953,90.326988 429.000214,102.645340 
	C427.401886,108.942177 422.866638,112.273926 416.504669,114.370110 
	C423.215912,123.991165 429.715942,133.309464 436.875183,143.572739 
	C429.890808,143.572739 423.967377,143.751694 418.072083,143.423782 
	C416.874084,143.357147 415.504822,141.555099 414.687378,140.255615 
	C409.939117,132.707306 405.332214,125.070084 399.757812,117.671188 
	C399.757812,126.017105 399.757812,134.363022 399.757812,143.172546 
	C393.851349,143.172546 388.472778,143.172546 382.643524,143.172546 
	C382.643524,121.619232 382.643524,99.910774 382.643524,77.729424 
	C392.220062,77.729424 401.953674,77.729424 412.108154,77.811859 
M407.564850,91.759026 
	C405.749542,91.633049 403.871307,91.175430 402.142181,91.503571 
	C401.078583,91.705399 399.524292,93.039108 399.433716,93.983765 
	C399.106110,97.401245 399.304779,100.869164 399.304779,104.205315 
	C406.720520,105.531334 411.902466,104.098442 412.864777,100.360313 
	C413.887695,96.386803 413.066711,93.031075 407.564850,91.759026 
z"/>
<path fill="#30B3BD" opacity="1.000000" stroke="none" 
	d="
M634.328308,102.001396 
	C640.554382,94.672997 646.263000,87.327011 652.303589,80.264999 
	C653.586060,78.765663 656.030701,77.636696 658.024475,77.490601 
	C663.252136,77.107529 668.526550,77.361320 675.121887,77.361320 
	C666.246704,88.488533 658.215088,98.558098 649.906433,108.975044 
	C658.215515,120.209633 666.553284,131.482956 675.528076,143.617599 
	C668.232727,143.617599 661.966492,143.806564 655.727844,143.475342 
	C654.295166,143.399292 652.609009,141.789337 651.634644,140.451752 
	C646.640808,133.596481 641.933411,126.531685 636.900208,119.706573 
	C635.830139,118.255592 633.820496,117.497505 631.177673,115.691780 
	C631.177673,125.825966 631.177673,134.400284 631.177673,143.301575 
	C625.308105,143.301575 619.913147,143.301575 614.252563,143.301575 
	C614.252563,121.386780 614.252563,99.669853 614.252563,77.670914 
	C619.831177,77.670914 625.225769,77.670914 631.041992,77.670914 
	C631.041992,84.769585 631.055115,91.565376 631.033936,98.361076 
	C631.027588,100.393990 630.701782,102.599907 634.328308,102.001396 
z"/>
<path fill="#31B3BE" opacity="1.000000" stroke="none" 
	d="
M534.673096,131.160248 
	C528.713379,131.160278 523.207092,131.339569 517.720154,131.091492 
	C514.546265,130.947983 513.004089,131.987381 511.987488,135.062790 
	C509.136566,143.687210 508.997314,143.641159 499.734436,143.641083 
	C497.304749,143.641052 494.875092,143.641083 491.753662,143.641083 
	C496.061096,131.835922 500.079742,120.792839 504.120239,109.757751 
	C507.493591,100.544701 511.022858,91.385826 514.212524,82.109932 
	C515.399902,78.656853 516.964294,76.904861 520.925049,77.269402 
	C525.220581,77.664734 529.596924,77.147453 533.903259,77.479668 
	C535.331848,77.589890 537.447815,78.799507 537.904358,80.012695 
	C545.743286,100.842720 553.371277,121.752121 561.398376,143.604675 
	C555.731140,143.604675 550.479431,144.415756 545.726379,143.229263 
	C543.652039,142.711456 542.146667,138.246826 541.203064,135.310974 
	C540.146484,132.023514 538.524170,130.559402 534.673096,131.160248 
M528.584961,99.076637 
	C527.955078,97.538437 527.325195,96.000237 526.369873,93.667473 
	C523.588440,101.840897 521.106628,109.133919 518.472046,116.875824 
	C524.044556,116.875824 528.932556,116.875824 534.549377,116.875824 
	C532.573975,110.949089 530.715271,105.372543 528.584961,99.076637 
z"/>
<path fill="#2FB2BD" opacity="1.000000" stroke="none" 
	d="
M293.663300,136.709106 
	C277.476868,148.127426 256.845093,146.628265 244.726074,133.396133 
	C236.107574,123.986046 234.015091,106.672997 240.016785,94.431763 
	C245.863297,82.507050 258.792572,75.705116 272.555298,76.629791 
	C287.009186,77.600891 297.488953,83.796539 303.229370,98.248367 
	C297.936493,100.066345 292.866058,101.807938 287.865021,103.525681 
	C282.030579,92.600906 273.758728,90.300285 264.882996,93.057625 
	C257.286987,95.417412 253.425797,102.204376 253.803940,111.663971 
	C254.146362,120.229919 258.506073,126.159203 265.844147,128.038910 
	C275.128204,130.417068 281.805206,127.163010 287.692291,117.143982 
	C292.693298,118.953590 297.763092,120.788078 304.298828,123.153023 
	C300.499481,128.045364 297.221802,132.265976 293.663300,136.709106 
z"/>
<path fill="#2FB2BD" opacity="1.000000" stroke="none" 
	d="
M466.652100,102.440590 
	C471.190918,104.205070 475.507935,105.530327 479.511932,107.493896 
	C486.915344,111.124519 490.760101,117.052620 490.174133,125.575531 
	C489.604584,133.859863 485.117462,139.287506 477.626801,141.939133 
	C467.545105,145.507980 457.379578,145.626480 447.733398,140.272003 
	C441.736542,136.943222 438.071045,131.817108 436.868286,124.318047 
	C442.665924,122.891785 448.363525,121.490135 454.033447,120.095291 
	C456.971954,128.422531 461.050720,131.714645 467.169037,130.203491 
	C469.075134,129.732697 471.724030,127.801895 471.969849,126.219055 
	C472.270477,124.283569 470.976562,121.067230 469.352386,120.076515 
	C465.727173,117.865204 461.459717,116.714310 457.471436,115.088417 
	C454.249756,113.775063 450.838745,112.757591 447.883942,110.987556 
	C435.990936,103.863190 436.324219,87.399162 448.374695,80.129578 
	C457.806244,74.439926 473.918518,75.099274 482.347412,82.231361 
	C485.831818,85.179710 488.137299,89.521278 491.809845,94.313408 
	C484.915222,96.045662 479.731110,97.348145 474.302338,98.712105 
	C472.532715,93.187920 469.371063,89.339157 463.443909,90.368050 
	C461.073456,90.779533 458.023499,92.704300 457.094238,94.759315 
	C455.579651,98.108742 458.953918,99.556114 461.563965,100.711731 
	C463.075531,101.380989 464.709991,101.772705 466.652100,102.440590 
z"/>
<path fill="#38B6C0" opacity="1.000000" stroke="none" 
	d="
M197.039429,259.746887 
	C197.037933,177.326904 197.037933,95.380745 197.037933,13.185892 
	C199.465439,13.185892 201.377899,13.185892 203.578278,13.185892 
	C203.578278,96.462700 203.578278,179.521729 203.578278,263.075562 
	C201.099548,262.101105 197.413940,265.555145 197.039429,259.746887 
z"/>
<path fill="#33B4BE" opacity="1.000000" stroke="none" 
	d="
M592.828735,128.993835 
	C592.828613,133.963898 592.828613,138.435226 592.828613,143.275177 
	C587.096619,143.275177 581.722168,143.275177 575.847290,143.275177 
	C575.847290,126.327454 575.847290,109.598473 575.847290,92.366890 
	C570.794739,92.366890 566.215942,92.366890 561.273926,92.366890 
	C561.273926,87.298096 561.273926,82.730576 561.273926,77.752960 
	C576.417603,77.752960 591.622986,77.752960 607.277161,77.752960 
	C607.277161,82.309311 607.277161,86.984619 607.277161,92.193169 
	C602.539429,92.193169 597.958374,92.193169 592.828796,92.193169 
	C592.828796,104.638222 592.828796,116.566673 592.828735,128.993835 
z"/>
<path fill="#33B4BE" opacity="1.000000" stroke="none" 
	d="
M427.730072,180.614410 
	C428.454926,178.518051 429.042999,176.789627 429.639862,175.064240 
	C432.594147,166.524689 432.594940,166.524963 442.316742,167.311829 
	C443.206787,177.994812 444.106323,188.791595 445.031647,199.897888 
	C442.566315,199.897888 440.641571,199.897888 438.192474,199.897888 
	C437.458130,192.540100 436.721649,185.161179 435.985199,177.782242 
	C435.746948,177.720169 435.508728,177.658081 435.270508,177.596008 
	C433.169739,183.776550 431.194031,190.004501 428.881653,196.104843 
	C428.291412,197.662048 426.634766,198.815033 425.468048,200.153732 
	C424.182434,198.750916 422.363098,197.559555 421.708313,195.906799 
	C419.477448,190.275879 417.657043,184.482346 414.496521,178.861938 
	C413.815887,185.840515 413.135254,192.819092 412.446136,199.884338 
	C410.123352,199.884338 408.207520,199.884338 405.616516,199.884338 
	C406.507904,188.881058 407.372864,178.203766 408.220795,167.737061 
	C408.896301,167.395966 409.175232,167.140671 409.467773,167.124008 
	C418.162659,166.629089 418.149567,166.637405 420.874023,174.623169 
	C422.104858,178.230835 423.390045,181.820190 424.690247,185.403442 
	C424.781738,185.655563 425.202545,185.788193 425.647034,186.100708 
	C426.311096,184.358459 426.954224,182.671097 427.730072,180.614410 
z"/>
<path fill="#33B4BE" opacity="1.000000" stroke="none" 
	d="
M480.583344,166.987366 
	C482.339569,168.027634 484.050323,168.814575 484.941406,170.148895 
	C488.995331,176.219193 492.818573,182.443558 497.609772,188.493317 
	C497.609772,181.544617 497.609772,174.595917 497.609772,167.326141 
	C500.265045,167.326141 502.300293,167.326141 504.592102,167.326141 
	C504.592102,178.123901 504.592102,188.721680 504.592102,199.645279 
	C499.935822,200.755585 496.256927,200.867691 493.597198,195.501038 
	C490.616058,189.485840 486.580658,183.993118 482.087311,178.514114 
	C482.087311,185.544220 482.087311,192.574326 482.087311,199.873856 
	C479.651672,199.873856 477.724884,199.873856 475.426941,199.873856 
	C475.426941,189.153717 475.426941,178.422256 475.426941,167.249390 
	C476.968567,167.163651 478.564484,167.074890 480.583344,166.987366 
z"/>
<path fill="#33B4BE" opacity="1.000000" stroke="none" 
	d="
M549.237061,189.845428 
	C544.604980,199.392944 536.097229,202.935120 526.744873,199.544250 
	C518.866089,196.687637 514.655212,187.592545 516.987488,178.469284 
	C518.856506,171.158371 525.998474,166.071152 533.895935,166.425415 
	C542.370483,166.805557 548.966492,172.229782 549.881714,180.087006 
	C550.238464,183.149155 549.566772,186.331100 549.237061,189.845428 
M539.533325,192.215164 
	C540.438477,191.046112 541.545593,189.981125 542.211609,188.688843 
	C544.371460,184.498306 543.405579,178.137543 540.129761,175.319382 
	C536.422485,172.129990 532.188965,172.193604 528.019165,174.179184 
	C524.344055,175.929199 522.448425,181.212433 523.470581,185.883133 
	C525.094727,193.304489 530.821960,195.836578 539.533325,192.215164 
z"/>
<path fill="#32B3BE" opacity="1.000000" stroke="none" 
	d="
M561.990479,170.207214 
	C562.970154,168.815460 563.855103,167.278351 564.944885,167.115952 
	C567.544800,166.728561 570.241577,166.965454 572.898804,166.993942 
	C579.712280,167.066956 583.011841,169.163818 584.402405,174.266174 
	C585.717163,179.090515 584.133545,182.068344 578.191772,185.768478 
	C581.140869,190.304184 584.090881,194.841278 587.163025,199.566254 
	C581.940613,201.120926 578.574280,200.129700 576.453918,195.164581 
	C575.000305,191.760635 572.643738,188.742264 570.690796,185.551529 
	C570.223694,185.647842 569.756653,185.744141 569.289551,185.840454 
	C569.289551,190.453018 569.289551,195.065598 569.289551,199.901062 
	C566.537354,199.901062 564.605225,199.901062 561.988953,199.901062 
	C561.988953,190.168839 561.988953,180.427841 561.990479,170.207214 
M568.962280,176.478867 
	C569.072693,177.884674 569.183105,179.290466 569.295776,180.725174 
	C571.276855,180.725174 573.010193,181.212463 574.168518,180.604416 
	C575.689148,179.806122 577.681396,178.190491 577.748108,176.841187 
	C577.809631,175.598358 575.750671,173.412888 574.339478,173.143661 
	C572.510132,172.794647 569.009399,171.088699 568.962280,176.478867 
z"/>
<path fill="#38B6C0" opacity="1.000000" stroke="none" 
	d="
M361.635620,200.354645 
	C356.717163,200.354294 352.251099,200.354294 347.470886,200.354294 
	C347.470886,189.123825 347.470886,178.399841 347.470886,167.323730 
	C353.751801,167.323730 359.959259,167.323730 366.450256,167.323730 
	C366.450256,169.071884 366.450256,170.666397 366.450256,172.924194 
	C362.556244,172.924194 358.664886,172.924194 354.566650,172.924194 
	C354.566650,175.541687 354.566650,177.498703 354.566650,180.061508 
	C357.919983,180.212357 361.164612,180.358322 364.750916,180.519653 
	C364.750916,182.460022 364.750916,184.185486 364.750916,186.371323 
	C361.561340,186.563873 358.327637,186.759094 354.731445,186.976196 
	C354.731445,189.279114 354.731445,191.340897 354.731445,193.884003 
	C358.525116,193.884003 362.293823,193.884003 366.394897,193.884003 
	C366.394897,196.096024 366.394897,197.836136 366.394897,200.027084 
	C364.956390,200.136612 363.522186,200.245804 361.635620,200.354645 
z"/>
<path fill="#35B4BF" opacity="1.000000" stroke="none" 
	d="
M236.516113,170.371887 
	C237.453140,168.936646 238.346542,167.169128 239.330658,167.117081 
	C244.615738,166.837616 249.923386,166.985046 255.590424,166.985046 
	C255.590424,168.974686 255.590424,170.684937 255.590424,172.908905 
	C251.880722,172.908905 248.136887,172.908905 244.071777,172.908905 
	C244.071777,175.459412 244.071777,177.513519 244.071777,180.346237 
	C246.562485,180.346237 249.055115,179.995468 251.368835,180.486969 
	C252.617767,180.752274 253.560715,182.458023 254.641708,183.513901 
	C253.550934,184.560516 252.601532,186.228302 251.338013,186.515915 
	C249.153625,187.013092 246.774292,186.653778 244.106735,186.653778 
	C244.106735,189.150665 244.106735,191.220749 244.106735,193.799896 
	C247.761475,193.799896 251.508179,193.799896 255.605316,193.799896 
	C255.605316,196.007874 255.605316,197.729446 255.605316,199.813385 
	C249.438477,199.813385 243.239380,199.813385 236.514328,199.813385 
	C236.514328,190.045593 236.514328,180.438461 236.516113,170.371887 
z"/>
<path fill="#33B4BE" opacity="1.000000" stroke="none" 
	d="
M315.629761,198.455002 
	C313.864777,195.285568 312.407410,192.344696 310.424805,188.343948 
	C313.972626,188.175461 315.878845,188.084930 317.971985,187.985535 
	C318.243469,188.942062 318.231995,189.933487 318.721924,190.436920 
	C320.268005,192.025620 321.929077,194.474792 323.684998,194.597580 
	C325.259186,194.707626 328.049652,192.391861 328.387024,190.751984 
	C328.687653,189.291000 326.416229,187.252090 325.177429,185.542480 
	C324.502045,184.610443 322.955414,183.810181 322.983398,182.990891 
	C323.020813,181.896240 324.225098,180.852798 324.892944,179.765656 
	C325.767700,178.341614 327.280212,176.878342 327.242462,175.466049 
	C327.214081,174.405685 325.265533,172.729889 324.004211,172.558044 
	C322.759338,172.388443 320.415833,173.485443 320.093994,174.510315 
	C318.671143,179.041092 315.714294,177.258118 312.724915,177.070038 
	C312.668152,172.034195 314.551208,168.705399 319.066040,167.170242 
	C323.928741,165.516861 329.715240,167.011505 332.250793,170.518127 
	C335.364594,174.824509 333.764099,178.658676 330.789215,182.196320 
	C335.562592,186.524719 336.677155,190.159103 334.671783,194.502502 
	C332.814056,198.526154 327.134674,201.458542 322.041534,200.697571 
	C319.953125,200.385529 317.968933,199.375870 315.629761,198.455002 
z"/>
<path fill="#35B4BF" opacity="1.000000" stroke="none" 
	d="
M275.159882,177.026993 
	C275.160065,182.814621 275.160065,188.108124 275.160065,193.734070 
	C278.830627,193.905228 282.067719,194.056183 285.537476,194.217987 
	C285.537476,196.117645 285.537476,197.719330 285.537476,199.748810 
	C279.968994,199.748810 274.422180,199.748810 268.528778,199.748810 
	C268.528778,189.019897 268.528778,178.293213 268.528778,167.273834 
	C270.593140,167.273834 272.514832,167.273834 275.159698,167.273834 
	C275.159698,170.340714 275.159698,173.436783 275.159882,177.026993 
z"/>
<path fill="#2FB2BD" opacity="1.000000" stroke="none" 
	d="
M385.960052,186.920441 
	C385.960114,189.384171 385.960114,191.358368 385.960114,193.832642 
	C389.345306,193.832642 392.419159,193.832642 395.844788,193.832642 
	C395.844788,196.048721 395.844788,197.769424 395.844788,199.824280 
	C390.427032,199.824280 385.022644,199.824280 379.304840,199.824280 
	C379.304840,189.030701 379.304840,178.299942 379.304840,167.282288 
	C381.321594,167.282288 383.251831,167.282288 385.959991,167.282288 
	C385.959991,173.592834 385.959991,180.011871 385.960052,186.920441 
z"/>
<path fill="#F7FCFD" opacity="1.000000" stroke="none" 
	d="
M37.296448,118.797241 
	C40.797798,120.202530 41.919075,122.337067 41.831882,125.875328 
	C41.569611,136.518188 41.858025,147.173828 41.665310,157.819672 
	C41.607265,161.026138 42.460449,162.907654 45.414925,164.503220 
	C54.626099,169.477692 63.542416,175.000763 72.780930,179.920776 
	C76.528778,181.916718 78.189598,184.280945 77.665512,188.515823 
	C77.321533,191.295273 77.600525,194.151840 77.600525,197.496979 
	C76.264557,196.967499 75.216614,196.687317 74.303032,196.169891 
	C59.985878,188.060928 45.661064,179.964539 31.422335,171.719635 
	C30.054966,170.927856 28.334324,169.178848 28.318958,167.856308 
	C28.112799,150.110565 28.180895,132.361633 28.180895,113.802925 
	C31.535082,115.644028 34.248360,117.133339 37.296448,118.797241 
z"/>
<path fill="#FBFDFE" opacity="1.000000" stroke="none" 
	d="
M107.454674,87.558502 
	C115.976616,92.447113 124.191010,97.133858 133.170654,102.257225 
	C128.867142,104.784142 125.216331,107.184837 121.311539,109.055351 
	C120.218391,109.579002 118.188759,108.878159 116.908806,108.164726 
	C107.466263,102.901474 98.019753,97.633835 88.764114,92.053062 
	C85.541847,90.110184 83.119713,89.817749 79.747429,91.888779 
	C70.822853,97.369652 61.530037,102.248703 52.565102,107.667282 
	C49.480019,109.531975 47.071659,109.911285 44.085747,107.657990 
	C41.587822,105.772949 38.704296,104.398872 35.563927,102.546288 
	C36.687798,101.637421 37.437183,100.844841 38.343414,100.326462 
	C52.347153,92.316086 66.418076,84.421570 80.352013,76.292099 
	C83.215828,74.621262 85.378448,74.785980 88.101799,76.438065 
	C94.356369,80.232338 100.787598,83.735382 107.454674,87.558502 
z"/>
<path fill="#FCFEFE" opacity="1.000000" stroke="none" 
	d="
M139.969574,160.916931 
	C141.392685,168.013809 138.229477,171.392578 132.464966,174.373459 
	C120.357979,180.634064 108.702217,187.766510 96.849670,194.520813 
	C95.169830,195.478073 93.425323,196.321854 90.905190,197.639282 
	C90.905190,192.582825 90.665298,188.309692 91.058556,184.095642 
	C91.169456,182.907227 92.967873,181.604309 94.276817,180.843323 
	C103.625786,175.408218 112.988083,169.989166 122.481644,164.813568 
	C125.628433,163.098038 126.959564,161.108063 126.863625,157.399353 
	C126.596672,147.078934 126.941170,136.742844 126.682022,126.422035 
	C126.586609,122.622131 127.435966,120.147034 131.171356,118.658150 
	C134.032166,117.517876 136.632721,115.724709 139.969376,113.878738 
	C139.969376,129.899643 139.969376,145.165009 139.969574,160.916931 
z"/>
<path fill="#FBFDFE" opacity="1.000000" stroke="none" 
	d="
M102.704544,160.789062 
	C97.345428,163.882126 92.383743,166.957809 87.213158,169.629150 
	C85.716019,170.402618 83.235153,170.752762 81.863235,170.036575 
	C75.238312,166.578094 68.837898,162.689529 61.646904,158.543625 
	C69.110039,154.220734 76.020752,150.143097 83.039879,146.261505 
	C83.785217,145.849350 85.314041,146.320496 86.227684,146.831696 
	C92.755173,150.483994 99.217339,154.253036 106.206467,158.276367 
	C104.935226,159.211151 103.978828,159.914444 102.704544,160.789062 
z"/>
<path fill="#FCFEFE" opacity="1.000000" stroke="none" 
	d="
M109.207901,118.951477 
	C112.417763,120.192169 113.395241,122.158493 113.285316,125.273415 
	C113.045502,132.069687 113.211189,138.880264 113.211189,146.846603 
	C105.610428,142.557983 98.735352,138.715668 91.922325,134.766296 
	C91.363441,134.442322 90.944130,133.392212 90.937668,132.675186 
	C90.868004,124.938210 90.894218,117.200363 90.894218,108.617157 
	C97.384193,112.289207 103.123001,115.536247 109.207901,118.951477 
z"/>
<path fill="#FCFEFE" opacity="1.000000" stroke="none" 
	d="
M77.334274,123.970764 
	C78.846077,131.922821 75.885666,136.508087 68.781540,139.275040 
	C64.245369,141.041809 60.162380,143.972122 54.980175,146.884277 
	C54.980175,138.171234 54.919003,130.455811 55.063896,122.744255 
	C55.080490,121.861168 56.060856,120.676025 56.913700,120.179817 
	C63.341244,116.440125 69.848778,112.837898 77.334076,108.628860 
	C77.334076,114.116333 77.334076,118.797546 77.334274,123.970764 
z"/>
<path fill="#FCFEFE" opacity="1.000000" stroke="none" 
	d="
M356.884979,115.319839 
	C353.923798,127.513252 342.259491,130.694336 333.779602,127.725929 
	C324.602753,124.513565 320.202454,113.062996 324.126068,102.652901 
	C327.455780,93.818550 337.647156,89.596573 346.818512,93.252075 
	C354.539398,96.329468 357.787415,103.265137 356.884979,115.319839 
z"/>
<path fill="#F7FCFD" opacity="1.000000" stroke="none" 
	d="
M407.964172,91.849686 
	C413.066711,93.031075 413.887695,96.386803 412.864777,100.360313 
	C411.902466,104.098442 406.720520,105.531334 399.304779,104.205315 
	C399.304779,100.869164 399.106110,97.401245 399.433716,93.983765 
	C399.524292,93.039108 401.078583,91.705399 402.142181,91.503571 
	C403.871307,91.175430 405.749542,91.633049 407.964172,91.849686 
z"/>
<path fill="#F7FCFD" opacity="1.000000" stroke="none" 
	d="
M528.720825,99.436325 
	C530.715271,105.372543 532.573975,110.949089 534.549377,116.875824 
	C528.932556,116.875824 524.044556,116.875824 518.472046,116.875824 
	C521.106628,109.133919 523.588440,101.840897 526.369873,93.667473 
	C527.325195,96.000237 527.955078,97.538437 528.720825,99.436325 
z"/>
<path fill="#FBFDFE" opacity="1.000000" stroke="none" 
	d="
M539.215942,192.459686 
	C530.821960,195.836578 525.094727,193.304489 523.470581,185.883133 
	C522.448425,181.212433 524.344055,175.929199 528.019165,174.179184 
	C532.188965,172.193604 536.422485,172.129990 540.129761,175.319382 
	C543.405579,178.137543 544.371460,184.498306 542.211609,188.688843 
	C541.545593,189.981125 540.438477,191.046112 539.215942,192.459686 
z"/>
<path fill="#F7FCFD" opacity="1.000000" stroke="none" 
	d="
M568.964111,176.028427 
	C569.009399,171.088699 572.510132,172.794647 574.339478,173.143661 
	C575.750671,173.412888 577.809631,175.598358 577.748108,176.841187 
	C577.681396,178.190491 575.689148,179.806122 574.168518,180.604416 
	C573.010193,181.212463 571.276855,180.725174 569.295776,180.725174 
	C569.183105,179.290466 569.072693,177.884674 568.964111,176.028427 
z"/>
</svg>