<?xml version="1.0" encoding="UTF-8"?>
<svg xmlns="http://www.w3.org/2000/svg" xmlns:xlink="http://www.w3.org/1999/xlink" width="164px" height="95px" viewBox="0 0 164 95" version="1.1">
<g id="surface1">
<path style=" stroke:none;fill-rule:nonzero;fill:rgb(17.254902%,69.411765%,73.72549%);fill-opacity:1;" d="M 11.148438 22.511719 C 11.566406 22.511719 11.984375 22.351562 12.304688 22.03125 C 12.941406 21.394531 12.941406 20.351562 12.304688 19.714844 L 7.476562 14.871094 C 6.835938 14.230469 5.800781 14.230469 5.164062 14.871094 C 4.527344 15.511719 4.527344 16.550781 5.164062 17.1875 L 9.992188 22.03125 C 10.308594 22.351562 10.730469 22.511719 11.148438 22.511719 Z M 11.148438 22.511719 "/>
<path style=" stroke:none;fill-rule:nonzero;fill:rgb(17.254902%,69.411765%,73.72549%);fill-opacity:1;" d="M 55.746094 14.871094 C 55.105469 14.226562 54.074219 14.226562 53.433594 14.871094 L 48.609375 19.714844 C 47.96875 20.351562 47.96875 21.394531 48.609375 22.03125 C 48.925781 22.351562 49.347656 22.511719 49.765625 22.511719 C 50.183594 22.511719 50.601562 22.351562 50.917969 22.03125 L 55.746094 17.1875 C 56.386719 16.550781 56.386719 15.507812 55.746094 14.871094 Z M 55.746094 14.871094 "/>
<path style=" stroke:none;fill-rule:nonzero;fill:rgb(17.254902%,69.411765%,73.72549%);fill-opacity:1;" d="M 21.664062 14.125 C 21.890625 14.8125 22.527344 15.25 23.214844 15.25 C 23.382812 15.25 23.558594 15.222656 23.730469 15.164062 C 24.585938 14.878906 25.050781 13.949219 24.765625 13.089844 L 22.351562 5.824219 C 22.066406 4.964844 21.144531 4.5 20.285156 4.789062 C 19.429688 5.074219 18.964844 6.003906 19.25 6.863281 Z M 21.664062 14.125 "/>
<path style=" stroke:none;fill-rule:nonzero;fill:rgb(17.254902%,69.411765%,73.72549%);fill-opacity:1;" d="M 37.179688 15.164062 C 37.351562 15.222656 37.523438 15.25 37.695312 15.25 C 38.378906 15.25 39.019531 14.816406 39.246094 14.128906 L 41.660156 6.863281 C 41.945312 6.003906 41.484375 5.074219 40.628906 4.789062 C 39.769531 4.496094 38.84375 4.964844 38.558594 5.824219 L 36.144531 13.089844 C 35.859375 13.949219 36.320312 14.878906 37.179688 15.164062 Z M 37.179688 15.164062 "/>
<path style=" stroke:none;fill-rule:nonzero;fill:rgb(17.254902%,69.411765%,73.72549%);fill-opacity:1;" d="M 37.179688 78.238281 L 22.695312 83.082031 C 21.839844 83.367188 21.378906 84.296875 21.664062 85.15625 C 21.890625 85.84375 22.527344 86.277344 23.214844 86.277344 C 23.382812 86.277344 23.558594 86.25 23.730469 86.191406 L 38.214844 81.351562 C 39.070312 81.066406 39.53125 80.136719 39.246094 79.277344 C 38.960938 78.417969 38.035156 77.953125 37.179688 78.238281 Z M 37.179688 78.238281 "/>
<path style=" stroke:none;fill-rule:nonzero;fill:rgb(17.254902%,69.411765%,73.72549%);fill-opacity:1;" d="M 34.472656 83.988281 L 25.097656 87.121094 C 24.242188 87.410156 23.777344 88.335938 24.0625 89.199219 C 24.292969 89.882812 24.929688 90.320312 25.613281 90.320312 C 25.785156 90.320312 25.960938 90.292969 26.132812 90.234375 L 35.507812 87.097656 C 36.363281 86.8125 36.824219 85.882812 36.539062 85.027344 C 36.253906 84.167969 35.328125 83.703125 34.472656 83.988281 Z M 34.472656 83.988281 "/>
<path style=" stroke:none;fill-rule:nonzero;fill:rgb(17.254902%,69.411765%,73.72549%);fill-opacity:1;" d="M 30.457031 20.035156 C 19.496094 20.035156 9.511719 30.050781 9.511719 41.050781 C 9.511719 48.78125 12.707031 53.910156 15.792969 58.871094 C 18.769531 63.644531 21.578125 68.15625 21.578125 74.953125 C 21.578125 75.859375 22.3125 76.59375 23.214844 76.59375 L 27.621094 76.59375 L 22.699219 78.242188 C 21.839844 78.527344 21.378906 79.457031 21.664062 80.3125 C 21.890625 81 22.53125 81.4375 23.214844 81.4375 C 23.386719 81.4375 23.558594 81.410156 23.730469 81.351562 L 38.214844 76.507812 C 38.234375 76.503906 38.25 76.492188 38.269531 76.484375 C 38.324219 76.464844 38.378906 76.4375 38.429688 76.414062 C 38.476562 76.390625 38.519531 76.367188 38.5625 76.339844 C 38.609375 76.3125 38.648438 76.28125 38.691406 76.246094 C 38.734375 76.214844 38.777344 76.183594 38.816406 76.144531 C 38.851562 76.109375 38.886719 76.070312 38.921875 76.03125 C 38.953125 75.992188 38.988281 75.953125 39.019531 75.910156 C 39.050781 75.867188 39.078125 75.820312 39.105469 75.773438 C 39.132812 75.730469 39.15625 75.6875 39.175781 75.640625 C 39.199219 75.59375 39.21875 75.539062 39.238281 75.484375 C 39.253906 75.4375 39.269531 75.390625 39.28125 75.339844 C 39.292969 75.289062 39.300781 75.238281 39.308594 75.183594 C 39.316406 75.128906 39.324219 75.074219 39.328125 75.015625 C 39.328125 74.996094 39.332031 74.976562 39.332031 74.953125 C 39.332031 68.15625 42.144531 63.648438 45.117188 58.871094 C 48.207031 53.914062 51.398438 48.785156 51.398438 41.050781 C 51.398438 30.050781 41.414062 20.035156 30.457031 20.035156 Z M 41.015625 50.539062 C 36.425781 57.449219 36.371094 66.789062 36.371094 66.882812 C 36.371094 67.488281 35.886719 67.976562 35.28125 67.976562 C 34.679688 67.976562 34.191406 67.488281 34.191406 66.882812 C 34.191406 66.503906 34.242188 58.175781 38.171875 51.027344 L 35.28125 51.027344 C 35.109375 51.027344 34.945312 50.988281 34.804688 50.914062 L 33.84375 52.84375 C 33.617188 53.300781 33.101562 53.53125 32.617188 53.421875 C 32.125 53.300781 31.777344 52.863281 31.777344 52.355469 L 31.777344 52.144531 L 31.429688 52.84375 C 31.203125 53.300781 30.699219 53.53125 30.203125 53.421875 C 29.710938 53.300781 29.363281 52.863281 29.363281 52.355469 L 29.363281 52.144531 L 29.015625 52.84375 C 28.789062 53.300781 28.285156 53.53125 27.789062 53.421875 C 27.296875 53.300781 26.949219 52.863281 26.949219 52.355469 L 26.949219 52.144531 L 26.601562 52.84375 C 26.378906 53.292969 25.875 53.53125 25.378906 53.417969 C 24.882812 53.304688 24.539062 52.859375 24.539062 52.355469 L 24.539062 51.027344 L 22.734375 51.027344 C 26.667969 58.175781 26.71875 66.507812 26.71875 66.886719 C 26.71875 67.488281 26.230469 67.980469 25.628906 67.980469 C 25.027344 67.980469 24.539062 67.488281 24.535156 66.886719 C 24.535156 66.792969 24.472656 57.433594 19.894531 50.539062 C 19.667969 50.203125 19.648438 49.773438 19.839844 49.417969 C 20.027344 49.0625 20.398438 48.839844 20.800781 48.839844 L 25.625 48.839844 C 25.796875 48.839844 25.960938 48.882812 26.101562 48.953125 L 27.0625 47.023438 C 27.289062 46.570312 27.792969 46.332031 28.289062 46.449219 C 28.78125 46.566406 29.128906 47.003906 29.128906 47.511719 L 29.128906 47.722656 L 29.476562 47.023438 C 29.703125 46.570312 30.207031 46.332031 30.703125 46.449219 C 31.195312 46.566406 31.542969 47.003906 31.542969 47.511719 L 31.542969 47.722656 L 31.890625 47.023438 C 32.117188 46.570312 32.625 46.332031 33.117188 46.449219 C 33.609375 46.566406 33.957031 47.003906 33.957031 47.511719 L 33.957031 47.722656 L 34.304688 47.023438 C 34.53125 46.570312 35.039062 46.332031 35.53125 46.449219 C 36.023438 46.566406 36.371094 47.003906 36.371094 47.511719 L 36.371094 48.839844 L 40.109375 48.839844 C 40.507812 48.839844 40.878906 49.0625 41.070312 49.417969 C 41.261719 49.773438 41.238281 50.203125 41.015625 50.539062 Z M 30.457031 24.097656 C 30.457031 24.097656 44.9375 24.097656 47.347656 38.625 C 47.316406 38.632812 44.9375 28.941406 30.457031 24.097656 Z M 30.457031 24.097656 "/>
<path style=" stroke:none;fill-rule:nonzero;fill:rgb(17.254902%,69.411765%,73.72549%);fill-opacity:1;" d="M 71.808594 47.316406 C 68.238281 47.316406 65.597656 44.878906 65.597656 41.050781 C 65.597656 37.21875 68.234375 34.789062 71.808594 34.789062 C 74.515625 34.789062 76.6875 36.183594 77.550781 38.492188 L 75.199219 39.355469 C 74.660156 37.9375 73.375 37.117188 71.808594 37.117188 C 69.714844 37.117188 68.109375 38.585938 68.109375 41.050781 C 68.109375 43.511719 69.714844 44.988281 71.808594 44.988281 C 73.375 44.988281 74.660156 44.164062 75.199219 42.746094 L 77.550781 43.605469 C 76.6875 45.917969 74.515625 47.316406 71.808594 47.316406 Z M 86.957031 47.316406 C 83.382812 47.316406 80.742188 44.871094 80.742188 41.050781 C 80.742188 37.21875 83.382812 34.789062 86.957031 34.789062 C 90.519531 34.789062 93.160156 37.21875 93.160156 41.050781 C 93.160156 44.871094 90.519531 47.316406 86.957031 47.316406 Z M 86.957031 44.996094 C 89.046875 44.996094 90.65625 43.519531 90.65625 41.050781 C 90.65625 38.585938 89.046875 37.117188 86.957031 37.117188 C 84.863281 37.117188 83.257812 38.585938 83.257812 41.050781 C 83.257812 43.519531 84.863281 44.996094 86.957031 44.996094 Z M 103.851562 47.148438 L 100.6875 41.785156 L 99.957031 41.785156 L 99.957031 47.148438 L 97.433594 47.148438 L 97.433594 34.957031 L 101.839844 34.957031 C 104.589844 34.957031 105.75 36.585938 105.75 38.601562 C 105.75 40.238281 104.824219 41.300781 103.175781 41.65625 L 106.835938 47.148438 Z M 99.957031 37.058594 L 99.957031 39.96875 L 101.445312 39.96875 C 102.789062 39.96875 103.335938 39.394531 103.335938 38.519531 C 103.335938 37.648438 102.789062 37.058594 101.445312 37.058594 Z M 114.675781 47.316406 C 112.066406 47.316406 110.035156 46.058594 109.664062 43.773438 L 112.269531 43.175781 C 112.4375 44.542969 113.4375 45.25 114.773438 45.25 C 115.800781 45.25 116.617188 44.796875 116.609375 43.765625 C 116.597656 42.617188 115.253906 42.253906 113.773438 41.800781 C 111.992188 41.242188 110.082031 40.585938 110.082031 38.339844 C 110.082031 36.070312 111.933594 34.789062 114.371094 34.789062 C 116.507812 34.789062 118.660156 35.660156 119.148438 37.996094 L 116.707031 38.601562 C 116.480469 37.386719 115.667969 36.855469 114.523438 36.855469 C 113.503906 36.855469 112.640625 37.277344 112.640625 38.28125 C 112.640625 39.21875 113.832031 39.53125 115.210938 39.945312 C 117.046875 40.5 119.214844 41.210938 119.214844 43.640625 C 119.214844 46.230469 117.054688 47.316406 114.675781 47.316406 Z M 131.628906 47.148438 L 130.746094 44.632812 L 125.640625 44.632812 L 124.757812 47.148438 L 122.179688 47.148438 L 126.652344 34.957031 L 129.738281 34.957031 L 134.210938 47.148438 Z M 126.382812 42.515625 L 130.003906 42.515625 L 128.199219 37.347656 Z M 145.035156 34.957031 L 145.035156 37.1875 L 142.148438 37.1875 L 142.148438 47.148438 L 139.652344 47.148438 L 139.652344 37.1875 L 136.753906 37.1875 L 136.753906 34.957031 Z M 156.085938 47.148438 L 152.308594 41.96875 L 151.417969 41.96875 L 151.417969 47.148438 L 148.898438 47.148438 L 148.898438 34.957031 L 151.417969 34.957031 L 151.417969 39.75 L 152.277344 39.75 L 156.085938 34.957031 L 159.164062 34.957031 L 154.453125 40.789062 L 159.304688 47.148438 Z M 156.085938 47.148438 "/>
<path style=" stroke:none;fill-rule:nonzero;fill:rgb(17.254902%,69.411765%,73.72549%);fill-opacity:1;" d="M 76.050781 56.863281 L 76.050781 58.761719 L 80.625 58.761719 L 80.625 59.847656 L 74.96875 59.847656 L 74.96875 52.40625 L 80.1875 52.40625 L 80.1875 53.503906 L 76.050781 53.503906 L 76.050781 55.757812 C 76.257812 55.636719 76.484375 55.558594 76.738281 55.519531 C 76.921875 55.484375 77.160156 55.46875 77.453125 55.46875 L 79.074219 55.46875 L 79.074219 56.574219 L 77.453125 56.574219 C 77.179688 56.574219 76.941406 56.59375 76.738281 56.625 C 76.484375 56.671875 76.257812 56.75 76.050781 56.863281 Z M 87.566406 59.847656 L 82.367188 59.847656 L 82.367188 52.40625 L 83.449219 52.40625 L 83.449219 58.761719 L 87.566406 58.761719 Z M 91.992188 53.503906 L 91.992188 52.40625 L 96.636719 52.40625 L 96.636719 53.503906 L 94.796875 55.269531 C 95.507812 55.339844 96.070312 55.570312 96.484375 55.957031 C 96.898438 56.34375 97.105469 56.84375 97.105469 57.464844 C 97.105469 57.957031 96.96875 58.402344 96.699219 58.800781 C 96.4375 59.179688 96.085938 59.476562 95.636719 59.695312 C 95.191406 59.910156 94.703125 60.019531 94.171875 60.019531 C 93.859375 60.019531 93.515625 59.960938 93.140625 59.847656 C 92.765625 59.734375 92.417969 59.582031 92.09375 59.390625 C 91.742188 59.175781 91.464844 58.9375 91.257812 58.671875 L 91.921875 57.742188 C 92.242188 58.140625 92.617188 58.445312 93.046875 58.652344 C 93.425781 58.835938 93.800781 58.929688 94.171875 58.929688 C 94.507812 58.929688 94.820312 58.867188 95.101562 58.746094 C 95.382812 58.621094 95.605469 58.453125 95.773438 58.242188 C 95.945312 58.007812 96.03125 57.75 96.03125 57.464844 C 96.03125 57.078125 95.875 56.785156 95.5625 56.585938 C 95.273438 56.40625 94.859375 56.316406 94.320312 56.316406 L 93.445312 56.316406 L 93.445312 55.238281 L 95.226562 53.503906 Z M 100.078125 56.863281 L 100.078125 58.761719 L 104.652344 58.761719 L 104.652344 59.847656 L 98.996094 59.847656 L 98.996094 52.40625 L 104.214844 52.40625 L 104.214844 53.503906 L 100.078125 53.503906 L 100.078125 55.757812 C 100.285156 55.636719 100.511719 55.558594 100.765625 55.519531 C 100.949219 55.484375 101.1875 55.46875 101.480469 55.46875 L 103.101562 55.46875 L 103.101562 56.574219 L 101.480469 56.574219 C 101.210938 56.574219 100.96875 56.59375 100.765625 56.625 C 100.511719 56.671875 100.285156 56.75 100.078125 56.863281 Z M 111.59375 59.847656 L 106.394531 59.847656 L 106.394531 52.40625 L 107.476562 52.40625 L 107.476562 58.761719 L 111.59375 58.761719 Z M 119.222656 54.730469 L 116.6875 57.773438 L 114.171875 54.730469 L 114.171875 59.847656 L 113.105469 59.847656 L 113.105469 53.453125 L 112.242188 52.40625 L 113.644531 52.40625 L 116.675781 56.058594 L 119.75 52.40625 L 121.152344 52.40625 L 120.289062 53.453125 L 120.289062 59.847656 L 119.222656 59.847656 Z M 125.609375 53.453125 L 124.742188 52.40625 L 126.144531 52.40625 L 130.910156 58.09375 L 130.910156 52.40625 L 132.003906 52.40625 L 132.003906 59.847656 L 130.929688 59.847656 L 126.671875 54.730469 L 126.671875 59.847656 L 125.609375 59.847656 Z M 140.605469 56.078125 C 140.605469 55.542969 140.46875 55.0625 140.199219 54.628906 C 139.9375 54.210938 139.585938 53.882812 139.140625 53.640625 C 138.691406 53.402344 138.207031 53.28125 137.683594 53.28125 C 137.136719 53.28125 136.640625 53.40625 136.195312 53.652344 C 135.746094 53.898438 135.398438 54.234375 135.144531 54.660156 C 134.886719 55.105469 134.757812 55.601562 134.757812 56.148438 C 134.757812 56.664062 134.898438 57.144531 135.175781 57.582031 C 135.441406 57.996094 135.796875 58.324219 136.246094 58.566406 C 136.691406 58.808594 137.175781 58.929688 137.695312 58.929688 C 138.21875 58.929688 138.699219 58.804688 139.148438 58.550781 C 139.597656 58.296875 139.949219 57.960938 140.207031 57.535156 C 140.472656 57.085938 140.605469 56.601562 140.605469 56.078125 Z M 141.679688 56.136719 C 141.679688 56.855469 141.492188 57.515625 141.121094 58.121094 C 140.765625 58.699219 140.277344 59.160156 139.664062 59.503906 C 139.050781 59.847656 138.390625 60.019531 137.683594 60.019531 C 136.945312 60.019531 136.269531 59.839844 135.652344 59.480469 C 135.050781 59.132812 134.574219 58.65625 134.230469 58.050781 C 133.871094 57.433594 133.695312 56.753906 133.695312 56.015625 C 133.695312 55.304688 133.882812 54.648438 134.261719 54.050781 C 134.617188 53.480469 135.105469 53.023438 135.71875 52.6875 C 136.332031 52.351562 136.988281 52.183594 137.691406 52.183594 C 138.414062 52.183594 139.085938 52.359375 139.699219 52.714844 C 140.304688 53.058594 140.78125 53.527344 141.132812 54.121094 C 141.496094 54.738281 141.679688 55.410156 141.679688 56.136719 Z M 144.453125 53.492188 L 144.453125 55.96875 C 144.660156 55.847656 144.890625 55.765625 145.140625 55.726562 C 145.328125 55.695312 145.566406 55.675781 145.855469 55.675781 L 147.269531 55.675781 C 147.660156 55.675781 147.964844 55.585938 148.183594 55.40625 C 148.414062 55.214844 148.53125 54.925781 148.53125 54.539062 C 148.53125 54.175781 148.410156 53.902344 148.164062 53.722656 C 147.953125 53.570312 147.652344 53.492188 147.269531 53.492188 Z M 147.628906 58.671875 L 146.722656 56.765625 L 145.855469 56.765625 C 145.585938 56.765625 145.347656 56.78125 145.140625 56.816406 C 144.890625 56.863281 144.660156 56.941406 144.453125 57.054688 L 144.453125 59.847656 L 143.371094 59.847656 L 143.371094 52.40625 L 147.269531 52.40625 C 147.726562 52.40625 148.132812 52.492188 148.480469 52.664062 C 148.832031 52.835938 149.105469 53.082031 149.296875 53.402344 C 149.503906 53.742188 149.605469 54.140625 149.605469 54.601562 C 149.605469 55.160156 149.457031 55.617188 149.160156 55.976562 C 148.859375 56.335938 148.4375 56.585938 147.894531 56.726562 L 148.472656 57.914062 C 148.636719 58.160156 148.765625 58.332031 148.859375 58.433594 C 148.972656 58.558594 149.082031 58.644531 149.183594 58.6875 C 149.285156 58.730469 149.421875 58.75 149.585938 58.75 L 149.695312 58.75 L 149.933594 58.742188 L 149.933594 59.847656 C 149.550781 59.847656 149.265625 59.835938 149.078125 59.808594 C 148.765625 59.753906 148.503906 59.652344 148.285156 59.5 C 148.023438 59.3125 147.804688 59.039062 147.628906 58.671875 Z M 147.628906 58.671875 "/>
</g>
</svg>
