<svg version="1.1" id="Layer_1" xmlns="http://www.w3.org/2000/svg" xmlns:xlink="http://www.w3.org/1999/xlink" x="0px" y="0px"
	 width="100%" viewBox="0 0 200 67" enable-background="new 0 0 200 67" xml:space="preserve">
<path fill="#FDFEFE" opacity="1.000000" stroke="none" 
	d="
M162.000000,68.000000 
	C108.000008,68.000000 54.500011,68.000000 1.000014,68.000000 
	C1.000010,45.666676 1.000010,23.333351 1.000005,1.000020 
	C67.666649,1.000014 134.333298,1.000014 200.999969,1.000007 
	C200.999969,23.333313 200.999969,45.666626 200.999985,67.999969 
	C188.166672,68.000000 175.333328,68.000000 162.000000,68.000000 
M13.974973,8.731343 
	C13.476834,9.325168 12.978696,9.918992 11.952947,10.909119 
	C10.961468,12.290871 9.969989,13.672623 8.416141,14.663236 
	C5.590980,14.179998 4.671262,15.407684 4.862084,18.179140 
	C5.220469,23.384266 5.344957,28.605497 5.270098,34.598232 
	C5.514053,41.398350 5.758008,48.198467 6.040056,55.705429 
	C9.355382,57.481434 12.670708,59.257435 16.686272,61.234039 
	C21.994936,62.968372 27.017433,66.356796 33.787220,64.048225 
	C44.404247,60.937275 49.801170,53.082649 53.457909,42.621639 
	C53.947586,41.254456 54.810917,39.887318 54.811073,38.520084 
	C54.811203,37.385544 53.794876,36.250889 53.228844,35.116287 
	C52.484386,35.940960 51.432961,36.649506 51.066837,37.617306 
	C50.506451,39.098606 50.418552,40.758652 50.127472,43.061676 
	C47.312714,51.992176 42.024754,58.686050 32.165707,62.006218 
	C25.464933,62.215561 23.138361,59.950359 25.726898,54.963440 
	C33.172012,51.658882 38.461575,46.634476 39.996361,37.771751 
	C40.335709,36.748264 40.873867,35.745449 40.982800,34.697998 
	C41.818439,26.662672 40.184151,19.149364 36.850319,12.052528 
	C39.752850,12.482052 42.655376,12.911575 46.006039,13.861687 
	C48.385456,17.666937 50.764870,21.472185 53.581928,25.636509 
	C53.513668,24.421993 53.445404,23.207479 53.276680,21.226925 
	C51.167492,18.186832 49.058308,15.146741 46.375130,11.723514 
	C43.605854,10.464896 40.836578,9.206280 37.738102,7.223116 
	C36.090546,6.795961 34.457073,6.080748 32.792614,5.999381 
	C28.877447,5.807989 24.947483,5.919251 20.279350,5.838157 
	C18.355583,6.718533 16.431814,7.598907 13.974973,8.731343 
M71.892349,36.363785 
	C71.917831,37.695263 71.479652,39.293552 72.061592,40.304817 
	C73.436478,42.694046 75.011070,46.287727 77.028145,46.675976 
	C79.985886,47.245285 83.549927,45.775227 86.532249,44.447681 
	C87.459129,44.035091 87.337181,41.266304 87.695389,39.576195 
	C87.129509,39.465614 86.563629,39.355034 85.997742,39.244453 
	C85.532745,40.226086 85.322502,41.567425 84.549843,42.114639 
	C82.929787,43.262001 80.874939,44.888779 79.258636,44.638626 
	C77.663315,44.391720 75.341316,42.189579 75.168541,40.640995 
	C74.636978,35.876606 74.690521,30.985840 75.160843,26.207590 
	C75.303940,24.753803 77.410820,22.591169 78.841110,22.397331 
	C80.581703,22.161436 82.674179,23.468138 84.383392,24.492924 
	C85.256737,25.016546 85.625648,26.381519 86.222557,27.366217 
	C86.715050,27.215071 87.207550,27.063927 87.700043,26.912781 
	C87.456993,25.509357 87.654144,23.247644 86.891830,22.856670 
	C84.142303,21.446508 81.095932,19.946222 78.112091,19.837242 
	C74.660477,19.711178 72.325920,22.274628 72.054825,25.927938 
	C71.821213,29.076252 71.932793,32.250179 71.892349,36.363785 
M182.234207,45.837219 
	C184.737717,46.625996 184.576797,46.594887 185.063217,44.078693 
	C185.442993,42.114147 186.286606,40.239269 187.251495,37.341267 
	C190.648346,41.490208 193.055939,44.430862 195.463531,47.371517 
	C195.969376,46.974873 196.475220,46.578228 196.981064,46.181580 
	C196.174469,44.878555 195.532150,43.430164 194.531281,42.299023 
	C191.168457,38.498455 189.430267,34.919659 195.029984,31.534475 
	C195.466583,31.270546 195.446976,30.251968 195.639404,29.584126 
	C195.337677,29.328741 195.035934,29.073357 194.734207,28.817972 
	C191.759521,31.283030 188.784836,33.748085 185.810150,36.213142 
	C185.356689,35.985821 184.903229,35.758495 184.449768,35.531174 
	C184.449768,29.757071 184.449768,23.982967 184.449768,18.208866 
	C183.667770,18.215454 182.885757,18.222042 182.103760,18.228630 
	C182.103760,27.139523 182.103760,36.050411 182.234207,45.837219 
M160.561203,37.042648 
	C160.064255,37.074772 159.552780,37.041950 159.072693,37.149403 
	C155.556793,37.936321 152.329376,39.358070 153.482239,43.712601 
	C154.610733,47.975151 158.032913,47.758514 161.579315,46.858616 
	C163.148727,46.460377 164.852570,46.591995 166.839920,46.460236 
	C166.839920,42.689472 167.454010,38.751411 166.617096,35.150600 
	C166.087555,32.872261 163.740814,30.364758 161.559525,29.331913 
	C159.872284,28.532991 157.176971,29.863012 154.929810,30.246586 
	C155.030029,30.705240 155.130264,31.163897 155.230484,31.622551 
	C156.983963,31.622551 158.890594,31.195570 160.444153,31.752884 
	C161.771225,32.228958 162.692917,33.835049 163.793930,34.941288 
	C162.990753,35.638218 162.187592,36.335144 160.561203,37.042648 
M103.838852,31.699402 
	C99.253990,28.051647 94.538383,27.958801 92.341698,32.059906 
	C91.106407,34.366123 90.991142,37.454411 90.980827,40.192661 
	C90.964676,44.478691 93.436066,47.040806 97.730698,47.302059 
	C102.061340,47.565510 104.865059,45.118340 105.336220,41.016361 
	C105.660301,38.194897 104.697899,35.225670 103.838852,31.699402 
M119.331024,46.859497 
	C124.311790,43.285736 125.815796,33.583130 120.885536,28.055546 
	C120.885536,32.125809 120.860085,34.963684 120.892136,37.800911 
	C120.930054,41.158058 120.510918,44.724129 116.408539,44.796928 
	C112.212090,44.871399 111.859688,41.338432 111.901657,37.946133 
	C111.937737,35.029488 111.740448,32.109951 111.646355,29.191690 
	C110.755554,29.203960 109.864754,29.216230 108.973953,29.228498 
	C108.973953,32.343342 108.936279,35.458736 108.981712,38.572914 
	C109.079300,45.262833 111.791306,47.639534 119.331024,46.859497 
M143.479324,31.875536 
	C145.759705,31.875536 148.040085,31.875536 150.320465,31.875536 
	C150.330093,31.170986 150.339706,30.466436 150.349335,29.761887 
	C147.725021,29.670801 144.940964,29.018553 142.537369,29.702772 
	C141.134735,30.102055 139.214294,32.937191 139.534225,34.144424 
	C140.025101,35.996704 142.206497,37.429745 143.743591,38.967632 
	C145.181900,40.406704 146.715332,41.750717 148.206894,43.136566 
	C145.998871,43.710899 143.806992,44.369652 141.570923,44.797321 
	C141.043930,44.898113 140.368011,44.220261 139.760605,43.900612 
	C141.540192,47.533909 144.671600,48.272430 147.779465,46.852310 
	C149.300552,46.157261 151.258698,43.160118 150.824387,42.131943 
	C149.956726,40.077866 147.726883,38.453953 145.775299,37.046570 
	C144.056046,35.806732 140.701477,35.891525 143.479324,31.875536 
M178.771057,46.557564 
	C172.100632,43.175987 173.463760,37.514656 174.301880,31.989943 
	C176.102798,31.527792 177.588593,31.146505 179.074387,30.765219 
	C179.079300,30.435385 179.084213,30.105549 179.089111,29.775715 
	C177.469315,29.364283 175.849518,28.952852 174.283279,28.555027 
	C173.861816,25.936674 173.463257,23.460535 173.064682,20.984396 
	C172.367416,21.038439 171.670151,21.092482 170.972885,21.146524 
	C170.972885,27.485249 170.941544,33.824173 170.982147,40.162636 
	C171.018982,45.913708 172.172363,46.987873 178.771057,46.557564 
M127.797485,38.490204 
	C127.797485,41.282635 127.797485,44.075062 127.797485,46.867493 
	C128.365433,46.924686 128.933380,46.981876 129.501328,47.039070 
	C132.787155,41.704163 126.318855,31.558607 138.318344,30.521183 
	C137.977478,30.098497 137.636627,29.675810 137.295776,29.253124 
	C134.331680,29.425817 131.367569,29.598511 127.797020,29.806538 
	C127.797020,32.292171 127.797020,34.913429 127.797485,38.490204 
z"/>
<path fill="#68C7CF" opacity="1.000000" stroke="none" 
	d="
M33.023430,64.060471 
	C27.017433,66.356796 21.994936,62.968372 16.400791,60.640583 
	C16.176100,59.721256 16.236887,59.395382 16.700146,59.226585 
	C18.340977,59.489620 19.579338,59.595573 21.008497,59.717854 
	C21.008497,54.358429 20.712461,49.401260 21.097538,44.497578 
	C21.435665,40.191772 20.394909,37.199165 16.001152,35.704948 
	C15.995501,35.468731 16.003222,34.996231 16.369169,34.988621 
	C17.222738,34.948051 17.710361,34.915089 18.560896,34.954403 
	C25.031914,35.182838 22.763781,41.461849 25.650419,44.334244 
	C26.507746,42.693726 26.838570,41.197079 26.851744,39.697636 
	C26.911667,32.877731 26.921898,26.056746 26.871449,19.236731 
	C26.835381,14.361131 29.919432,12.701942 34.018993,12.019843 
	C33.996922,12.024142 33.980698,11.982841 33.854973,12.280985 
	C33.474541,13.337237 33.219833,14.095346 32.629242,14.806717 
	C31.525988,15.191685 30.758623,15.623390 29.775898,16.109634 
	C29.248659,16.352627 29.172403,16.610722 29.293299,17.319147 
	C29.112528,27.128906 28.970224,36.557980 28.505657,45.993000 
	C27.452536,46.340553 26.721674,46.682159 25.566891,47.067398 
	C24.753235,48.916107 24.363506,50.721184 24.159321,52.738892 
	C24.569508,53.650288 24.794147,54.349049 25.018787,55.047813 
	C23.138361,59.950359 25.464933,62.215561 32.585320,62.346691 
	C33.011097,63.144932 33.017262,63.602703 33.023430,64.060471 
z"/>
<path fill="#4ABCC6" opacity="1.000000" stroke="none" 
	d="
M71.892044,35.888283 
	C71.932793,32.250179 71.821213,29.076252 72.054825,25.927938 
	C72.325920,22.274628 74.660477,19.711178 78.112091,19.837242 
	C81.095932,19.946222 84.142303,21.446508 86.891830,22.856670 
	C87.654144,23.247644 87.456993,25.509357 87.700043,26.912781 
	C87.207550,27.063927 86.715050,27.215071 86.222557,27.366217 
	C85.625648,26.381519 85.256737,25.016546 84.383392,24.492924 
	C82.674179,23.468138 80.581703,22.161436 78.841110,22.397331 
	C77.410820,22.591169 75.303940,24.753803 75.160843,26.207590 
	C74.690521,30.985840 74.636978,35.876606 75.168541,40.640995 
	C75.341316,42.189579 77.663315,44.391720 79.258636,44.638626 
	C80.874939,44.888779 82.929787,43.262001 84.549843,42.114639 
	C85.322502,41.567425 85.532745,40.226086 85.997742,39.244453 
	C86.563629,39.355034 87.129509,39.465614 87.695389,39.576195 
	C87.337181,41.266304 87.459129,44.035091 86.532249,44.447681 
	C83.549927,45.775227 79.985886,47.245285 77.028145,46.675976 
	C75.011070,46.287727 73.436478,42.694046 72.061592,40.304817 
	C71.479652,39.293552 71.917831,37.695263 71.892044,35.888283 
z"/>
<path fill="#4ABCC6" opacity="1.000000" stroke="none" 
	d="
M182.168976,45.399261 
	C182.103760,36.050411 182.103760,27.139523 182.103760,18.228630 
	C182.885757,18.222042 183.667770,18.215454 184.449768,18.208866 
	C184.449768,23.982967 184.449768,29.757071 184.449768,35.531174 
	C184.903229,35.758495 185.356689,35.985821 185.810150,36.213142 
	C188.784836,33.748085 191.759521,31.283030 194.734207,28.817972 
	C195.035934,29.073357 195.337677,29.328741 195.639404,29.584126 
	C195.446976,30.251968 195.466583,31.270546 195.029984,31.534475 
	C189.430267,34.919659 191.168457,38.498455 194.531281,42.299023 
	C195.532150,43.430164 196.174469,44.878555 196.981064,46.181580 
	C196.475220,46.578228 195.969376,46.974873 195.463531,47.371517 
	C193.055939,44.430862 190.648346,41.490208 187.251495,37.341267 
	C186.286606,40.239269 185.442993,42.114147 185.063217,44.078693 
	C184.576797,46.594887 184.737717,46.625996 182.168976,45.399261 
z"/>
<path fill="#54C0C9" opacity="1.000000" stroke="none" 
	d="
M16.003222,34.996231 
	C16.003222,34.996231 15.995501,35.468731 15.645633,35.703247 
	C12.627869,35.322720 9.959972,34.707672 6.860373,34.026772 
	C6.141350,33.913960 5.854031,33.866997 5.566711,33.820030 
	C5.344957,28.605497 5.220469,23.384266 4.862084,18.179140 
	C4.671262,15.407684 5.590980,14.179998 8.703178,15.189180 
	C8.992343,16.155819 8.994471,16.596514 8.591333,17.094044 
	C4.510216,25.110828 8.136702,29.076612 21.743629,30.694286 
	C20.746244,26.858583 19.861607,23.456480 18.994843,19.712337 
	C19.018877,19.142044 19.025034,18.913792 19.429993,18.777084 
	C22.788033,20.646990 24.583958,30.832941 22.186943,33.219276 
	C21.550621,33.852764 20.097309,33.665607 18.977715,33.574810 
	C18.291344,33.192287 17.646370,33.090199 16.755947,33.156174 
	C16.341404,33.881573 16.172314,34.438900 16.003222,34.996231 
M10.413106,31.178156 
	C9.524480,30.744267 8.635855,30.310379 7.747229,29.876490 
	C7.631248,30.185883 7.515266,30.495277 7.399285,30.804670 
	C8.263795,31.067959 9.128305,31.331245 10.413106,31.178156 
z"/>
<path fill="#4CBDC6" opacity="1.000000" stroke="none" 
	d="
M160.972809,37.037361 
	C162.187592,36.335144 162.990753,35.638218 163.793930,34.941292 
	C162.692917,33.835049 161.771225,32.228958 160.444153,31.752884 
	C158.890594,31.195570 156.983963,31.622551 155.230484,31.622551 
	C155.130264,31.163897 155.030029,30.705240 154.929810,30.246586 
	C157.176971,29.863012 159.872284,28.532991 161.559525,29.331913 
	C163.740814,30.364758 166.087555,32.872261 166.617096,35.150600 
	C167.454010,38.751411 166.839920,42.689472 166.839920,46.460236 
	C164.852570,46.591995 163.148727,46.460377 161.579315,46.858616 
	C158.032913,47.758514 154.610733,47.975151 153.482239,43.712601 
	C152.329376,39.358070 155.556793,37.936321 159.072693,37.149403 
	C159.552780,37.041950 160.064255,37.074772 160.972809,37.037361 
M158.318863,39.464516 
	C157.765579,40.941864 157.212296,42.419216 156.658997,43.896561 
	C158.022400,44.218170 159.839310,45.239082 160.652267,44.711884 
	C162.214645,43.698704 163.208145,41.808266 165.298782,39.212402 
	C162.001678,39.212402 160.539764,39.212402 158.318863,39.464516 
z"/>
<path fill="#4ABCC6" opacity="1.000000" stroke="none" 
	d="
M104.074677,32.010941 
	C104.697899,35.225670 105.660301,38.194897 105.336220,41.016361 
	C104.865059,45.118340 102.061340,47.565510 97.730698,47.302059 
	C93.436066,47.040806 90.964676,44.478691 90.980827,40.192661 
	C90.991142,37.454411 91.106407,34.366123 92.341698,32.059906 
	C94.538383,27.958801 99.253990,28.051647 104.074677,32.010941 
M93.793625,37.647320 
	C93.752983,41.071156 93.601585,44.994019 98.374268,44.838360 
	C102.135765,44.715687 102.715302,41.401470 102.810478,38.179695 
	C102.909653,34.822479 101.982704,31.820038 98.360863,31.508921 
	C95.210709,31.238323 93.770485,33.687130 93.793625,37.647320 
z"/>
<path fill="#4CBDC6" opacity="1.000000" stroke="none" 
	d="
M118.983116,46.977676 
	C111.791306,47.639534 109.079300,45.262833 108.981712,38.572914 
	C108.936279,35.458736 108.973953,32.343342 108.973953,29.228498 
	C109.864754,29.216230 110.755554,29.203960 111.646355,29.191690 
	C111.740448,32.109951 111.937737,35.029488 111.901657,37.946133 
	C111.859688,41.338432 112.212090,44.871399 116.408539,44.796928 
	C120.510918,44.724129 120.930054,41.158058 120.892136,37.800911 
	C120.860085,34.963684 120.885536,32.125809 120.885536,28.055546 
	C125.815796,33.583130 124.311790,43.285736 118.983116,46.977676 
z"/>
<path fill="#4ABCC6" opacity="1.000000" stroke="none" 
	d="
M143.186432,32.110954 
	C140.701477,35.891525 144.056046,35.806732 145.775299,37.046570 
	C147.726883,38.453953 149.956726,40.077866 150.824387,42.131943 
	C151.258698,43.160118 149.300552,46.157261 147.779465,46.852310 
	C144.671600,48.272430 141.540192,47.533909 139.760605,43.900612 
	C140.368011,44.220261 141.043930,44.898113 141.570923,44.797321 
	C143.806992,44.369652 145.998871,43.710899 148.206894,43.136566 
	C146.715332,41.750717 145.181900,40.406704 143.743591,38.967632 
	C142.206497,37.429745 140.025101,35.996704 139.534225,34.144424 
	C139.214294,32.937191 141.134735,30.102055 142.537369,29.702772 
	C144.940964,29.018553 147.725021,29.670801 150.349335,29.761887 
	C150.339706,30.466436 150.330093,31.170986 150.320465,31.875536 
	C148.040085,31.875536 145.759705,31.875536 143.186432,32.110954 
z"/>
<path fill="#4CBDC6" opacity="1.000000" stroke="none" 
	d="
M178.428558,46.775410 
	C172.172363,46.987873 171.018982,45.913708 170.982147,40.162636 
	C170.941544,33.824173 170.972885,27.485249 170.972885,21.146524 
	C171.670151,21.092482 172.367416,21.038439 173.064682,20.984396 
	C173.463257,23.460535 173.861816,25.936674 174.283279,28.555027 
	C175.849518,28.952852 177.469315,29.364283 179.089111,29.775715 
	C179.084213,30.105549 179.079300,30.435385 179.074387,30.765219 
	C177.588593,31.146505 176.102798,31.527792 174.301880,31.989943 
	C173.463760,37.514656 172.100632,43.175987 178.428558,46.775410 
z"/>
<path fill="#F2FAFB" opacity="1.000000" stroke="none" 
	d="
M32.965130,14.853456 
	C33.219833,14.095346 33.474541,13.337237 34.196167,12.298023 
	C35.112934,12.080855 35.562786,12.144792 36.012634,12.208729 
	C40.184151,19.149364 41.818439,26.662672 40.982800,34.697998 
	C40.873867,35.745449 40.335709,36.748264 39.551849,37.571121 
	C38.483929,37.058514 37.860523,36.746536 37.165077,36.010124 
	C37.610229,33.643944 38.964901,31.461304 38.488567,29.805346 
	C37.023808,24.713116 34.858299,19.822454 32.965130,14.853456 
z"/>
<path fill="#70CAD2" opacity="1.000000" stroke="none" 
	d="
M33.405327,64.054352 
	C33.017262,63.602703 33.011097,63.144932 33.002510,62.343910 
	C42.024754,58.686050 47.312714,51.992176 50.413734,42.653313 
	C51.412792,42.524521 52.125591,42.804100 52.838387,43.083679 
	C49.801170,53.082649 44.404247,60.937275 33.405327,64.054352 
z"/>
<path fill="#3EB7C2" opacity="1.000000" stroke="none" 
	d="
M127.797256,38.012447 
	C127.797020,34.913429 127.797020,32.292171 127.797020,29.806538 
	C131.367569,29.598511 134.331680,29.425817 137.295776,29.253124 
	C137.636627,29.675810 137.977478,30.098497 138.318344,30.521183 
	C126.318855,31.558607 132.787155,41.704163 129.501328,47.039070 
	C128.933380,46.981876 128.365433,46.924686 127.797485,46.867493 
	C127.797485,44.075062 127.797485,41.282635 127.797256,38.012447 
z"/>
<path fill="#70CAD2" opacity="1.000000" stroke="none" 
	d="
M37.237122,36.434559 
	C37.860523,36.746536 38.483929,37.058514 39.177612,37.693779 
	C38.461575,46.634476 33.172012,51.658882 25.372843,55.005627 
	C24.794147,54.349049 24.569508,53.650288 24.539890,52.693207 
	C32.182816,49.664742 36.295918,44.288868 37.237122,36.434559 
z"/>
<path fill="#4CBDC6" opacity="1.000000" stroke="none" 
	d="
M36.431477,12.130629 
	C35.562786,12.144792 35.112934,12.080855 34.321892,11.999880 
	C33.980698,11.982841 33.996922,12.024142 33.959572,11.690588 
	C34.044693,10.937604 34.167164,10.518172 34.613956,10.053905 
	C35.981289,9.321935 37.024296,8.634798 38.067303,7.947663 
	C40.836578,9.206280 43.605854,10.464896 46.493557,12.181595 
	C46.260624,12.873484 45.909267,13.107291 45.557907,13.341099 
	C42.655376,12.911575 39.752850,12.482052 36.431477,12.130629 
z"/>
<path fill="#3EB7C2" opacity="1.000000" stroke="none" 
	d="
M5.418405,34.209129 
	C5.854031,33.866997 6.141350,33.913960 6.846389,34.487968 
	C7.479851,41.622894 7.695592,48.230778 7.434317,54.882523 
	C6.638854,54.950447 6.320409,54.974514 6.001964,54.998585 
	C5.758008,48.198467 5.514053,41.398350 5.418405,34.209129 
z"/>
<path fill="#70CAD2" opacity="1.000000" stroke="none" 
	d="
M8.996598,17.037207 
	C8.994471,16.596514 8.992343,16.155819 8.984362,15.384750 
	C9.969989,13.672623 10.961468,12.290871 12.534279,11.011787 
	C13.330094,11.312009 13.544578,11.509561 13.613603,12.026569 
	C11.760684,17.584757 17.178875,16.570587 19.031193,18.685539 
	C19.025034,18.913792 19.018877,19.142044 18.599327,19.702112 
	C15.122825,19.035019 12.059711,18.036112 8.996598,17.037207 
z"/>
<path fill="#83D1D8" opacity="1.000000" stroke="none" 
	d="
M37.902702,7.585389 
	C37.024296,8.634798 35.981289,9.321935 34.511482,9.633627 
	C29.714886,8.794907 25.345085,8.331631 20.981745,7.541985 
	C20.999971,6.779761 21.011738,6.343906 21.023506,5.908051 
	C24.947483,5.919251 28.877447,5.807989 32.792614,5.999381 
	C34.457073,6.080748 36.090546,6.795961 37.902702,7.585389 
z"/>
<path fill="#68C7CF" opacity="1.000000" stroke="none" 
	d="
M45.781975,13.601393 
	C45.909267,13.107291 46.260624,12.873484 46.780552,12.373162 
	C49.058308,15.146741 51.167492,18.186832 53.228973,22.010265 
	C53.168938,23.621548 53.156609,24.449492 53.144279,25.277435 
	C50.764870,21.472185 48.385456,17.666937 45.781975,13.601393 
z"/>
<path fill="#83D1D8" opacity="1.000000" stroke="none" 
	d="
M6.021009,55.352005 
	C6.320409,54.974514 6.638854,54.950447 7.705140,55.001038 
	C11.067878,56.406967 13.682776,57.738239 16.297676,59.069511 
	C16.236887,59.395382 16.176100,59.721256 16.050673,60.540283 
	C12.670708,59.257435 9.355382,57.481434 6.021009,55.352005 
z"/>
<path fill="#F6FCFC" opacity="1.000000" stroke="none" 
	d="
M53.148148,42.852661 
	C52.125591,42.804100 51.412792,42.524521 50.415047,42.293884 
	C50.418552,40.758652 50.506451,39.098606 51.066837,37.617306 
	C51.432961,36.649506 52.484386,35.940960 53.228844,35.116287 
	C53.794876,36.250889 54.811203,37.385544 54.811073,38.520084 
	C54.810917,39.887318 53.947586,41.254456 53.148148,42.852661 
z"/>
<path fill="#70CAD2" opacity="1.000000" stroke="none" 
	d="
M20.651428,5.873104 
	C21.011738,6.343906 20.999971,6.779761 20.633717,7.631462 
	C18.752478,8.607450 17.225727,9.167593 15.403287,9.413674 
	C14.907747,8.892837 14.707897,8.686059 14.508047,8.479282 
	C16.431814,7.598907 18.355583,6.718533 20.651428,5.873104 
z"/>
<path fill="#F6FCFC" opacity="1.000000" stroke="none" 
	d="
M53.363106,25.456972 
	C53.156609,24.449492 53.168938,23.621548 53.279202,22.393284 
	C53.445404,23.207479 53.513668,24.421993 53.363106,25.456972 
z"/>
<path fill="#70CAD2" opacity="1.000000" stroke="none" 
	d="
M12.798084,10.813637 
	C12.978696,9.918992 13.476834,9.325168 14.241510,8.605312 
	C14.707897,8.686059 14.907747,8.892837 15.212164,9.614523 
	C14.797508,10.655326 14.278285,11.181219 13.759062,11.707111 
	C13.544578,11.509561 13.330094,11.312009 12.798084,10.813637 
z"/>
<path fill="#FAFDFD" opacity="1.000000" stroke="none" 
	d="
M16.700146,59.226589 
	C13.682776,57.738239 11.067878,56.406967 8.182158,54.957176 
	C7.695592,48.230778 7.479851,41.622894 7.278093,34.553818 
	C9.959972,34.707672 12.627869,35.322720 15.651283,35.939465 
	C20.394909,37.199165 21.435665,40.191772 21.097538,44.497578 
	C20.712461,49.401260 21.008497,54.358429 21.008497,59.717854 
	C19.579338,59.595573 18.340977,59.489620 16.700146,59.226589 
z"/>
<path fill="#F2FAFB" opacity="1.000000" stroke="none" 
	d="
M13.613604,12.026569 
	C14.278285,11.181219 14.797508,10.655326 15.507854,9.928584 
	C17.225727,9.167593 18.752478,8.607450 20.627256,7.957831 
	C25.345085,8.331631 29.714886,8.794907 34.187157,9.678463 
	C34.167164,10.518172 34.044693,10.937604 33.981644,11.686289 
	C29.919432,12.701942 26.835381,14.361131 26.871449,19.236731 
	C26.921898,26.056746 26.911667,32.877731 26.851744,39.697636 
	C26.838570,41.197079 26.507746,42.693726 25.650419,44.334244 
	C22.763781,41.461849 25.031914,35.182838 18.520832,34.756393 
	C18.117857,34.486103 18.111750,34.081715 18.340649,34.033348 
	C18.569550,33.984978 19.019114,33.855244 19.019114,33.855244 
	C20.097309,33.665607 21.550621,33.852764 22.186943,33.219276 
	C24.583958,30.832941 22.788033,20.646990 19.429993,18.777084 
	C17.178875,16.570587 11.760684,17.584757 13.613604,12.026569 
z"/>
<path fill="#F6FCFC" opacity="1.000000" stroke="none" 
	d="
M37.165077,36.010124 
	C36.295918,44.288868 32.182816,49.664742 24.354343,52.480579 
	C24.363506,50.721184 24.753235,48.916107 25.782089,47.279396 
	C27.223448,46.960861 28.025682,46.473953 28.827919,45.987049 
	C28.970224,36.557980 29.112528,27.128906 29.443531,17.205643 
	C29.810997,16.525000 29.930674,16.306215 29.991259,16.055096 
	C30.758623,15.623390 31.525988,15.191685 32.629242,14.806717 
	C34.858299,19.822454 37.023808,24.713116 38.488567,29.805346 
	C38.964901,31.461304 37.610229,33.643944 37.165077,36.010124 
z"/>
<path fill="#70CAD2" opacity="1.000000" stroke="none" 
	d="
M28.505657,45.993000 
	C28.025682,46.473953 27.223448,46.960861 26.206013,47.235767 
	C26.721674,46.682159 27.452536,46.340553 28.505657,45.993000 
z"/>
<path fill="#83D1D8" opacity="1.000000" stroke="none" 
	d="
M18.111750,34.081715 
	C18.111750,34.081715 18.117857,34.486103 18.157921,34.684113 
	C17.710361,34.915089 17.222738,34.948051 16.369169,34.988621 
	C16.172314,34.438900 16.341404,33.881573 16.879826,33.393463 
	C17.536686,33.669025 17.824219,33.875370 18.111750,34.081715 
z"/>
<path fill="#F2FAFB" opacity="1.000000" stroke="none" 
	d="
M29.775898,16.109634 
	C29.930674,16.306215 29.810997,16.525000 29.481995,16.824955 
	C29.172403,16.610722 29.248659,16.352627 29.775898,16.109634 
z"/>
<path fill="#F6FCFC" opacity="1.000000" stroke="none" 
	d="
M8.591333,17.094044 
	C12.059711,18.036112 15.122825,19.035019 18.581453,20.044151 
	C19.861607,23.456480 20.746244,26.858583 21.743629,30.694286 
	C8.136702,29.076612 4.510216,25.110828 8.591333,17.094044 
z"/>
<path fill="#FDFEFE" opacity="1.000000" stroke="none" 
	d="
M10.202961,31.386345 
	C9.128305,31.331245 8.263795,31.067959 7.399285,30.804670 
	C7.515266,30.495277 7.631248,30.185883 7.747229,29.876490 
	C8.635855,30.310379 9.524480,30.744267 10.202961,31.386345 
z"/>
<path fill="#68C7CF" opacity="1.000000" stroke="none" 
	d="
M18.340649,34.033348 
	C17.824219,33.875370 17.536686,33.669025 17.125277,33.225395 
	C17.646370,33.090199 18.291344,33.192287 18.977715,33.574810 
	C19.019114,33.855244 18.569550,33.984978 18.340649,34.033348 
z"/>
<path fill="#F2FAFB" opacity="1.000000" stroke="none" 
	d="
M158.698364,39.338459 
	C160.539764,39.212402 162.001678,39.212402 165.298782,39.212402 
	C163.208145,41.808266 162.214645,43.698704 160.652267,44.711884 
	C159.839310,45.239082 158.022400,44.218170 156.658997,43.896561 
	C157.212296,42.419216 157.765579,40.941864 158.698364,39.338459 
z"/>
<path fill="#F6FCFC" opacity="1.000000" stroke="none" 
	d="
M93.795700,37.226406 
	C93.770485,33.687130 95.210709,31.238323 98.360863,31.508921 
	C101.982704,31.820038 102.909653,34.822479 102.810478,38.179695 
	C102.715302,41.401470 102.135765,44.715687 98.374268,44.838360 
	C93.601585,44.994019 93.752983,41.071156 93.795700,37.226406 
z"/>
</svg>